<mxfile host="app.diagrams.net" agent="Mozilla/5.0 (Windows NT 10.0; Win64; x64) AppleWebKit/537.36 (KHTML, like Gecko) Chrome/132.0.0.0 Safari/537.36 Edg/132.0.0.0" version="26.0.6" pages="7">
  <diagram name="deploy-strat_frontend" id="3i2JZrhW6qvmLHGFKI3r">
    <mxGraphModel dx="1042" dy="531" grid="1" gridSize="10" guides="1" tooltips="1" connect="1" arrows="1" fold="1" page="1" pageScale="1" pageWidth="827" pageHeight="1169" math="0" shadow="0">
      <root>
        <mxCell id="0" />
        <mxCell id="1" parent="0" />
        <mxCell id="DEPLwIcSqbtuHhnc7a1G-1" value="main" style="endArrow=classic;html=1;rounded=0;strokeWidth=3;" edge="1" parent="1">
          <mxGeometry width="50" height="50" relative="1" as="geometry">
            <mxPoint x="40" y="160" as="sourcePoint" />
            <mxPoint x="800" y="160" as="targetPoint" />
          </mxGeometry>
        </mxCell>
        <mxCell id="DEPLwIcSqbtuHhnc7a1G-2" value="develop" style="endArrow=classic;html=1;rounded=0;strokeWidth=3;" edge="1" parent="1">
          <mxGeometry width="50" height="50" relative="1" as="geometry">
            <mxPoint x="40" y="240" as="sourcePoint" />
            <mxPoint x="800" y="240" as="targetPoint" />
          </mxGeometry>
        </mxCell>
        <mxCell id="DEPLwIcSqbtuHhnc7a1G-3" value="release" style="endArrow=classic;html=1;rounded=0;strokeWidth=3;" edge="1" parent="1">
          <mxGeometry width="50" height="50" relative="1" as="geometry">
            <mxPoint x="560" y="200" as="sourcePoint" />
            <mxPoint x="680" y="200" as="targetPoint" />
          </mxGeometry>
        </mxCell>
        <mxCell id="DEPLwIcSqbtuHhnc7a1G-4" value="" style="html=1;verticalLabelPosition=bottom;align=center;labelBackgroundColor=#ffffff;verticalAlign=top;strokeWidth=2;strokeColor=#0080F0;shadow=0;dashed=0;shape=mxgraph.ios7.icons.smartphone;" vertex="1" parent="1">
          <mxGeometry x="750" y="60" width="18" height="30" as="geometry" />
        </mxCell>
        <mxCell id="DEPLwIcSqbtuHhnc7a1G-5" value="feature" style="endArrow=classic;html=1;rounded=0;strokeWidth=3;" edge="1" parent="1">
          <mxGeometry width="50" height="50" relative="1" as="geometry">
            <mxPoint x="120" y="280" as="sourcePoint" />
            <mxPoint x="320" y="280" as="targetPoint" />
          </mxGeometry>
        </mxCell>
        <mxCell id="DEPLwIcSqbtuHhnc7a1G-7" value="create" style="endArrow=classic;html=1;rounded=0;dashed=1;" edge="1" parent="1">
          <mxGeometry width="50" height="50" relative="1" as="geometry">
            <mxPoint x="80" y="240" as="sourcePoint" />
            <mxPoint x="120" y="280" as="targetPoint" />
          </mxGeometry>
        </mxCell>
        <mxCell id="DEPLwIcSqbtuHhnc7a1G-8" value="merge" style="endArrow=classic;html=1;rounded=0;dashed=1;" edge="1" parent="1">
          <mxGeometry width="50" height="50" relative="1" as="geometry">
            <mxPoint x="320" y="280" as="sourcePoint" />
            <mxPoint x="360" y="240" as="targetPoint" />
          </mxGeometry>
        </mxCell>
        <mxCell id="DEPLwIcSqbtuHhnc7a1G-9" value="create" style="endArrow=classic;html=1;rounded=0;dashed=1;" edge="1" parent="1">
          <mxGeometry width="50" height="50" relative="1" as="geometry">
            <mxPoint x="40" y="160" as="sourcePoint" />
            <mxPoint x="40" y="240" as="targetPoint" />
          </mxGeometry>
        </mxCell>
        <mxCell id="DEPLwIcSqbtuHhnc7a1G-10" value="create" style="endArrow=classic;html=1;rounded=0;dashed=1;" edge="1" parent="1">
          <mxGeometry width="50" height="50" relative="1" as="geometry">
            <mxPoint x="520" y="240" as="sourcePoint" />
            <mxPoint x="560" y="200" as="targetPoint" />
          </mxGeometry>
        </mxCell>
        <mxCell id="DEPLwIcSqbtuHhnc7a1G-11" value="merge" style="endArrow=classic;html=1;rounded=0;dashed=1;" edge="1" parent="1">
          <mxGeometry width="50" height="50" relative="1" as="geometry">
            <mxPoint x="680" y="200" as="sourcePoint" />
            <mxPoint x="720" y="240" as="targetPoint" />
          </mxGeometry>
        </mxCell>
        <mxCell id="DEPLwIcSqbtuHhnc7a1G-12" value="merge" style="endArrow=classic;html=1;rounded=0;dashed=1;" edge="1" parent="1">
          <mxGeometry width="50" height="50" relative="1" as="geometry">
            <mxPoint x="680" y="200" as="sourcePoint" />
            <mxPoint x="720" y="160" as="targetPoint" />
          </mxGeometry>
        </mxCell>
        <mxCell id="DEPLwIcSqbtuHhnc7a1G-13" value="&quot;release&quot;" style="endArrow=classic;html=1;rounded=0;dashed=1;entryX=0.489;entryY=1.067;entryDx=0;entryDy=0;entryPerimeter=0;" edge="1" parent="1" target="DEPLwIcSqbtuHhnc7a1G-4">
          <mxGeometry width="50" height="50" relative="1" as="geometry">
            <mxPoint x="720" y="160" as="sourcePoint" />
            <mxPoint x="730" y="170" as="targetPoint" />
          </mxGeometry>
        </mxCell>
        <mxCell id="E3cDpHVRhaV4s45swRPa-1" value="hotfix" style="endArrow=classic;html=1;rounded=0;strokeWidth=3;" edge="1" parent="1">
          <mxGeometry width="50" height="50" relative="1" as="geometry">
            <mxPoint x="240" y="200" as="sourcePoint" />
            <mxPoint x="280" y="200" as="targetPoint" />
          </mxGeometry>
        </mxCell>
        <mxCell id="E3cDpHVRhaV4s45swRPa-2" value="create" style="endArrow=classic;html=1;rounded=0;dashed=1;" edge="1" parent="1">
          <mxGeometry width="50" height="50" relative="1" as="geometry">
            <mxPoint x="200" y="160" as="sourcePoint" />
            <mxPoint x="240" y="200" as="targetPoint" />
          </mxGeometry>
        </mxCell>
        <mxCell id="E3cDpHVRhaV4s45swRPa-3" value="merge" style="endArrow=classic;html=1;rounded=0;dashed=1;" edge="1" parent="1">
          <mxGeometry width="50" height="50" relative="1" as="geometry">
            <mxPoint x="280" y="200" as="sourcePoint" />
            <mxPoint x="320" y="160" as="targetPoint" />
          </mxGeometry>
        </mxCell>
        <mxCell id="E3cDpHVRhaV4s45swRPa-4" value="merge" style="endArrow=classic;html=1;rounded=0;dashed=1;" edge="1" parent="1">
          <mxGeometry width="50" height="50" relative="1" as="geometry">
            <mxPoint x="280" y="200" as="sourcePoint" />
            <mxPoint x="320" y="240" as="targetPoint" />
          </mxGeometry>
        </mxCell>
      </root>
    </mxGraphModel>
  </diagram>
  <diagram id="vfKvLoFmOPX9UmSToIz4" name="deploy-strat_backend">
    <mxGraphModel dx="1042" dy="531" grid="1" gridSize="10" guides="1" tooltips="1" connect="1" arrows="1" fold="1" page="1" pageScale="1" pageWidth="827" pageHeight="1169" math="0" shadow="0">
      <root>
        <mxCell id="0" />
        <mxCell id="1" parent="0" />
        <mxCell id="w4z7I6-6bEdeX_JKQaVJ-1" value="main" style="endArrow=classic;html=1;rounded=0;strokeWidth=3;" edge="1" parent="1">
          <mxGeometry width="50" height="50" relative="1" as="geometry">
            <mxPoint x="40" y="160" as="sourcePoint" />
            <mxPoint x="800" y="160" as="targetPoint" />
          </mxGeometry>
        </mxCell>
        <mxCell id="w4z7I6-6bEdeX_JKQaVJ-2" value="develop" style="endArrow=classic;html=1;rounded=0;strokeWidth=3;" edge="1" parent="1">
          <mxGeometry width="50" height="50" relative="1" as="geometry">
            <mxPoint x="40" y="240" as="sourcePoint" />
            <mxPoint x="800" y="240" as="targetPoint" />
          </mxGeometry>
        </mxCell>
        <mxCell id="w4z7I6-6bEdeX_JKQaVJ-3" value="release" style="endArrow=classic;html=1;rounded=0;strokeWidth=3;" edge="1" parent="1">
          <mxGeometry width="50" height="50" relative="1" as="geometry">
            <mxPoint x="560" y="200" as="sourcePoint" />
            <mxPoint x="680" y="200" as="targetPoint" />
          </mxGeometry>
        </mxCell>
        <mxCell id="w4z7I6-6bEdeX_JKQaVJ-5" value="feature" style="endArrow=classic;html=1;rounded=0;strokeWidth=3;" edge="1" parent="1">
          <mxGeometry width="50" height="50" relative="1" as="geometry">
            <mxPoint x="120" y="280" as="sourcePoint" />
            <mxPoint x="320" y="280" as="targetPoint" />
          </mxGeometry>
        </mxCell>
        <mxCell id="w4z7I6-6bEdeX_JKQaVJ-6" value="create" style="endArrow=classic;html=1;rounded=0;dashed=1;" edge="1" parent="1">
          <mxGeometry width="50" height="50" relative="1" as="geometry">
            <mxPoint x="80" y="240" as="sourcePoint" />
            <mxPoint x="120" y="280" as="targetPoint" />
          </mxGeometry>
        </mxCell>
        <mxCell id="w4z7I6-6bEdeX_JKQaVJ-7" value="merge" style="endArrow=classic;html=1;rounded=0;dashed=1;" edge="1" parent="1">
          <mxGeometry width="50" height="50" relative="1" as="geometry">
            <mxPoint x="320" y="280" as="sourcePoint" />
            <mxPoint x="360" y="240" as="targetPoint" />
          </mxGeometry>
        </mxCell>
        <mxCell id="w4z7I6-6bEdeX_JKQaVJ-8" value="create" style="endArrow=classic;html=1;rounded=0;dashed=1;" edge="1" parent="1">
          <mxGeometry width="50" height="50" relative="1" as="geometry">
            <mxPoint x="40" y="160" as="sourcePoint" />
            <mxPoint x="40" y="240" as="targetPoint" />
          </mxGeometry>
        </mxCell>
        <mxCell id="w4z7I6-6bEdeX_JKQaVJ-9" value="create" style="endArrow=classic;html=1;rounded=0;dashed=1;" edge="1" parent="1">
          <mxGeometry width="50" height="50" relative="1" as="geometry">
            <mxPoint x="520" y="240" as="sourcePoint" />
            <mxPoint x="560" y="200" as="targetPoint" />
          </mxGeometry>
        </mxCell>
        <mxCell id="w4z7I6-6bEdeX_JKQaVJ-10" value="merge" style="endArrow=classic;html=1;rounded=0;dashed=1;" edge="1" parent="1">
          <mxGeometry width="50" height="50" relative="1" as="geometry">
            <mxPoint x="680" y="200" as="sourcePoint" />
            <mxPoint x="720" y="240" as="targetPoint" />
          </mxGeometry>
        </mxCell>
        <mxCell id="w4z7I6-6bEdeX_JKQaVJ-11" value="merge" style="endArrow=classic;html=1;rounded=0;dashed=1;" edge="1" parent="1">
          <mxGeometry width="50" height="50" relative="1" as="geometry">
            <mxPoint x="680" y="200" as="sourcePoint" />
            <mxPoint x="720" y="160" as="targetPoint" />
          </mxGeometry>
        </mxCell>
        <mxCell id="w4z7I6-6bEdeX_JKQaVJ-12" value="&quot;release&quot;" style="endArrow=classic;html=1;rounded=0;dashed=1;entryX=0.5;entryY=1;entryDx=0;entryDy=0;" edge="1" parent="1" target="w4z7I6-6bEdeX_JKQaVJ-13">
          <mxGeometry width="50" height="50" relative="1" as="geometry">
            <mxPoint x="720" y="160" as="sourcePoint" />
            <mxPoint x="758.8019999999999" y="92.00999999999999" as="targetPoint" />
          </mxGeometry>
        </mxCell>
        <mxCell id="w4z7I6-6bEdeX_JKQaVJ-13" value="" style="image;html=1;image=img/lib/clip_art/networking/Cloud_Storage_128x128.png" vertex="1" parent="1">
          <mxGeometry x="720" y="10" width="80" height="80" as="geometry" />
        </mxCell>
        <mxCell id="0DQ7rkDAfrKjrIuZ6R87-1" value="hotfix" style="endArrow=classic;html=1;rounded=0;strokeWidth=3;" edge="1" parent="1">
          <mxGeometry width="50" height="50" relative="1" as="geometry">
            <mxPoint x="240" y="200" as="sourcePoint" />
            <mxPoint x="280" y="200" as="targetPoint" />
          </mxGeometry>
        </mxCell>
        <mxCell id="0DQ7rkDAfrKjrIuZ6R87-2" value="create" style="endArrow=classic;html=1;rounded=0;dashed=1;" edge="1" parent="1">
          <mxGeometry width="50" height="50" relative="1" as="geometry">
            <mxPoint x="200" y="160" as="sourcePoint" />
            <mxPoint x="240" y="200" as="targetPoint" />
          </mxGeometry>
        </mxCell>
        <mxCell id="0DQ7rkDAfrKjrIuZ6R87-3" value="merge" style="endArrow=classic;html=1;rounded=0;dashed=1;" edge="1" parent="1">
          <mxGeometry width="50" height="50" relative="1" as="geometry">
            <mxPoint x="280" y="200" as="sourcePoint" />
            <mxPoint x="320" y="160" as="targetPoint" />
          </mxGeometry>
        </mxCell>
        <mxCell id="0DQ7rkDAfrKjrIuZ6R87-4" value="merge" style="endArrow=classic;html=1;rounded=0;dashed=1;" edge="1" parent="1">
          <mxGeometry width="50" height="50" relative="1" as="geometry">
            <mxPoint x="280" y="200" as="sourcePoint" />
            <mxPoint x="320" y="240" as="targetPoint" />
          </mxGeometry>
        </mxCell>
      </root>
    </mxGraphModel>
  </diagram>
  <diagram id="9uXlOM2J1IfHYZYRj5S3" name="TechStack">
    <mxGraphModel dx="1226" dy="1794" grid="1" gridSize="10" guides="1" tooltips="1" connect="1" arrows="1" fold="1" page="1" pageScale="1" pageWidth="827" pageHeight="1169" math="0" shadow="0">
      <root>
        <mxCell id="0" />
        <mxCell id="1" parent="0" />
        <mxCell id="Aq7TOSpX-jK6ljKEVWup-11" value="" style="ellipse;shape=cloud;whiteSpace=wrap;html=1;" vertex="1" parent="1">
          <mxGeometry x="340" y="-50" width="450" height="490" as="geometry" />
        </mxCell>
        <mxCell id="Aq7TOSpX-jK6ljKEVWup-9" value="" style="ellipse;shape=cloud;whiteSpace=wrap;html=1;" vertex="1" parent="1">
          <mxGeometry x="60" y="-50" width="310" height="490" as="geometry" />
        </mxCell>
        <mxCell id="MvW9L_SA7EWRsM39DsOd-1" value="Betriebssystem" style="rounded=1;whiteSpace=wrap;html=1;dashed=1;verticalAlign=top;" vertex="1" parent="1">
          <mxGeometry x="400" y="70" width="320" height="300" as="geometry" />
        </mxCell>
        <mxCell id="MvW9L_SA7EWRsM39DsOd-12" value="virtuell environment" style="rounded=1;whiteSpace=wrap;html=1;dashed=1;verticalAlign=top;" vertex="1" parent="1">
          <mxGeometry x="400" y="110" width="280" height="250" as="geometry" />
        </mxCell>
        <mxCell id="MvW9L_SA7EWRsM39DsOd-4" value="API" style="rounded=1;whiteSpace=wrap;html=1;rotation=-90;" vertex="1" parent="1">
          <mxGeometry x="380" y="220" width="160" height="40" as="geometry" />
        </mxCell>
        <mxCell id="MvW9L_SA7EWRsM39DsOd-5" value="ORM" style="rounded=1;whiteSpace=wrap;html=1;rotation=-90;" vertex="1" parent="1">
          <mxGeometry x="460" y="220" width="160" height="40" as="geometry" />
        </mxCell>
        <mxCell id="MvW9L_SA7EWRsM39DsOd-6" value="Database" style="rounded=1;whiteSpace=wrap;html=1;rotation=-90;" vertex="1" parent="1">
          <mxGeometry x="540" y="220" width="160" height="40" as="geometry" />
        </mxCell>
        <mxCell id="MvW9L_SA7EWRsM39DsOd-7" value="" style="shape=image;verticalLabelPosition=bottom;labelBackgroundColor=default;verticalAlign=top;aspect=fixed;imageAspect=0;image=https://fastapi.tiangolo.com/img/logo-margin/logo-teal.png;" vertex="1" parent="1">
          <mxGeometry x="413" y="324.99999999999994" width="84" height="30.27" as="geometry" />
        </mxCell>
        <mxCell id="MvW9L_SA7EWRsM39DsOd-8" value="" style="shape=image;verticalLabelPosition=bottom;labelBackgroundColor=default;verticalAlign=top;aspect=fixed;imageAspect=0;image=https://www.sqlalchemy.org/img/sqla_logo.png;" vertex="1" parent="1">
          <mxGeometry x="497" y="330.90000000000003" width="88" height="18.48" as="geometry" />
        </mxCell>
        <mxCell id="MvW9L_SA7EWRsM39DsOd-9" value="" style="shape=image;verticalLabelPosition=bottom;labelBackgroundColor=default;verticalAlign=top;aspect=fixed;imageAspect=0;image=https://www.sqlite.org/images/sqlite370_banner.svg;" vertex="1" parent="1">
          <mxGeometry x="591.78" y="327.85" width="54.45" height="24.58" as="geometry" />
        </mxCell>
        <mxCell id="MvW9L_SA7EWRsM39DsOd-10" value="" style="shape=image;verticalLabelPosition=bottom;labelBackgroundColor=default;verticalAlign=top;aspect=fixed;imageAspect=0;image=https://www.python.org/static/img/python-logo.png;" vertex="1" parent="1">
          <mxGeometry x="592.78" y="130" width="78" height="22.05" as="geometry" />
        </mxCell>
        <mxCell id="MvW9L_SA7EWRsM39DsOd-14" value="" style="shape=image;verticalLabelPosition=bottom;labelBackgroundColor=default;verticalAlign=top;aspect=fixed;imageAspect=0;image=https://upload.wikimedia.org/wikipedia/commons/thumb/7/76/Ubuntu-logo-2022.svg/250px-Ubuntu-logo-2022.svg.png;" vertex="1" parent="1">
          <mxGeometry x="604.77" y="75" width="85.23" height="30" as="geometry" />
        </mxCell>
        <mxCell id="MvW9L_SA7EWRsM39DsOd-16" value="MultiPlattformFramework" style="rounded=1;whiteSpace=wrap;html=1;dashed=1;verticalAlign=top;fillColor=none;" vertex="1" parent="1">
          <mxGeometry x="140" y="70" width="200" height="290" as="geometry" />
        </mxCell>
        <mxCell id="MvW9L_SA7EWRsM39DsOd-17" value="" style="shape=image;verticalLabelPosition=bottom;labelBackgroundColor=default;verticalAlign=top;aspect=fixed;imageAspect=0;image=https://docs.flutter.dev/assets/images/branding/flutter/logo+text/horizontal/default.svg;" vertex="1" parent="1">
          <mxGeometry x="220" y="90" width="100" height="28.04" as="geometry" />
        </mxCell>
        <mxCell id="MvW9L_SA7EWRsM39DsOd-18" value="Desktop" style="rounded=1;whiteSpace=wrap;html=1;rotation=0;" vertex="1" parent="1">
          <mxGeometry x="160" y="145" width="160" height="40" as="geometry" />
        </mxCell>
        <mxCell id="MvW9L_SA7EWRsM39DsOd-19" value="iOS" style="rounded=1;whiteSpace=wrap;html=1;rotation=0;" vertex="1" parent="1">
          <mxGeometry x="160" y="195" width="160" height="40" as="geometry" />
        </mxCell>
        <mxCell id="MvW9L_SA7EWRsM39DsOd-24" style="edgeStyle=orthogonalEdgeStyle;rounded=0;orthogonalLoop=1;jettySize=auto;html=1;entryX=0.5;entryY=0;entryDx=0;entryDy=0;" edge="1" parent="1" source="MvW9L_SA7EWRsM39DsOd-20" target="MvW9L_SA7EWRsM39DsOd-4">
          <mxGeometry relative="1" as="geometry" />
        </mxCell>
        <mxCell id="MvW9L_SA7EWRsM39DsOd-20" value="Android" style="rounded=1;whiteSpace=wrap;html=1;rotation=0;" vertex="1" parent="1">
          <mxGeometry x="160" y="245" width="160" height="40" as="geometry" />
        </mxCell>
        <mxCell id="MvW9L_SA7EWRsM39DsOd-25" style="edgeStyle=orthogonalEdgeStyle;rounded=0;orthogonalLoop=1;jettySize=auto;html=1;entryX=0.5;entryY=0;entryDx=0;entryDy=0;" edge="1" parent="1" source="MvW9L_SA7EWRsM39DsOd-21" target="MvW9L_SA7EWRsM39DsOd-4">
          <mxGeometry relative="1" as="geometry" />
        </mxCell>
        <mxCell id="MvW9L_SA7EWRsM39DsOd-21" value="Web" style="rounded=1;whiteSpace=wrap;html=1;rotation=0;" vertex="1" parent="1">
          <mxGeometry x="160" y="295" width="160" height="40" as="geometry" />
        </mxCell>
        <mxCell id="MvW9L_SA7EWRsM39DsOd-22" style="edgeStyle=orthogonalEdgeStyle;rounded=0;orthogonalLoop=1;jettySize=auto;html=1;entryX=0.5;entryY=0;entryDx=0;entryDy=0;" edge="1" parent="1" source="MvW9L_SA7EWRsM39DsOd-18" target="MvW9L_SA7EWRsM39DsOd-4">
          <mxGeometry relative="1" as="geometry" />
        </mxCell>
        <mxCell id="MvW9L_SA7EWRsM39DsOd-23" style="edgeStyle=orthogonalEdgeStyle;rounded=0;orthogonalLoop=1;jettySize=auto;html=1;entryX=0.5;entryY=0;entryDx=0;entryDy=0;" edge="1" parent="1" source="MvW9L_SA7EWRsM39DsOd-19" target="MvW9L_SA7EWRsM39DsOd-4">
          <mxGeometry relative="1" as="geometry">
            <mxPoint x="440" y="233" as="targetPoint" />
          </mxGeometry>
        </mxCell>
        <mxCell id="Aq7TOSpX-jK6ljKEVWup-4" value="" style="shape=image;verticalLabelPosition=bottom;labelBackgroundColor=default;verticalAlign=top;aspect=fixed;imageAspect=0;image=data:image/png,iVBORw0KGgoAAAANSUhEUgAAAJcAAAArCAYAAAB1lxp3AAAAAXNSR0IArs4c6QAAAARnQU1BAACxjwv8YQUAAAAJcEhZcwAADsMAAA7DAcdvqGQAAAsfSURBVHhe7ZpniFTLEsdrXV3XrGvWNeecM4pZfGYRFAMIBpT34eJV/HzhfZEnykP9IIgYMCFiQsW85hxQ15xzzmt23Te/cmo5Ozs7nrm8gTdr/+Fwzpzuru6u+ndVdZ9JyApAHBxigALBu4PD/xyOXA4xgyOXQ8zgyOUQMzhyOcQMjlwOMYMjl0PM4OucK2NE/eCTfxSoXEMKz9sms9LKSGbWt+BbfyidXF2mtj8mhQqlBH4l/HzpEHdwnsshZnDkcogZHLkccoFMKTMzU75//673Hz9+BEuiQ9ySCwUwabv8fiINbedt61Uq739HMP83b97IsWPHZNOmTbJ9+3Z59OhRsDQ6xGVCjwKuXr0qHz9+DL4RKV++vFSrVk0KFIi8XlDczZs3swmVlJQkjRo1CvRVSOWlpaXJs2fPpG3bttKkSZNfystPQK+nT5+WDRs2yOvXr1VHBQsWlP79+8vAgQODtfwjLjWHZ2FVLVmyJPtatWpVDrKFA95o8+bNOdqtW7dO26HYM2fOyNatW+XEiRNa9uTJk2DL/A+IdPnyZVmxYoUSKyEhQUqVKqUXBLM6nz59Un358EnxSS4mxgXJ7MJ13759O1gjN6j/8uVLuXTpUnYbCMUFUCbvqGch0cp+BzDnc+fOydevX/V348aNZdq0aTJ9+nTp1KmTPHz4UBfinDlzZMeOHfmXXOHw7ds3uXDhghIkHFDGlStX5MOHD2EVA7kIhX369JF27drJ6NGjpXLlysHS/A/I9fbtW9UNumjfvr1UqFBBypYtK8WKFVNvvm/fPnnw4IF8/vz59yAXOVFiYqI+G3nCAdIdPnxY79QPzaVQaNGiRWXQoEEybtw4adWqVbZcLzACRCY8cKFoZJq3Q+l4PN5xt99fvnzRdlYP8Ew9ykwenoP3eRkvr/7D1be61LG6oWMAjM/GaoBQ3nnQxsZlc6IsEuIyoUdJc+fOlXv37knJkiU1kSfcQYahQ4dK7969gzV/AqVcvHhRFi5cqM8NGzaU69evq3JYmTNnzlQ5r169kkOHDmkd3nfp0iWbYKZQ8hLCB/kY7dkQVK9eXVc643jx4oXutCiDrN26dZODBw9qf/QxbNgwKV68uPZBqCHPu3//vi4K+ipXrpyGpNatW+tvSO/t/9q1a9rm8ePHKqNIkSJSu3ZtnXNycnJ2Xcpu3LihYyVlgMBsWipVqiQtW7aU+vXrq3xk7t+/X73W2bNndTNjXjwlJUWfTRZpB7Jr1KihmyCehw8frn2Gw89MLY7BBDt27Kg7QEh35MgRJQVKN7BaeY+SMECLFi3k1q1buVYeiezOnTtV4XXq1JEOHTqoAegD0qxdu1ZJTLkXKP758+cyefJkrbd37171FCVKlNBxEa6RAakIu8hki0+YweheIIsQBCFHjhwpVatWVQMzt127dunFfLyAcJC7cOHCWvf9+/eyfv16OXnyZK6xUpcFROiHGLQ5cOCAkgr9AMZ66tQpffaC94BFzQUikSvuwyITrlWrlnoFAEGYuCmCO8q24wfqsnqtPBwos7DJM6Fq6dKl6v0wFuRgVdetW1fzMryXAePShot+09PT1WNAau4YkJ3u7t27lVjIgnSQmXGxM6MO42XHikfjNx4I4kMs6nBMgnfjCIbf9AvYyTFWCMrioQwvzFjLlCmj80IexFu8eLHOh7HhZRkfQBbvCI2MjTtl1gfPVhYJvjxX8p//CT75R0KRYgHmJsqwpssDio5u15WUWCygdAaeOySGA6uve/fuuloxGGGjXr16qgyUd/z4cTU0SiF82NbaD2jP7oiQgFEstBFa6ZdyVj1hKhQYEqMOHjxYjQFR3r17l+1RGAdnSOzGMCZkoJ81a9ZoiEYm5279+vXT9+ZpCVkjRoxQUuPRqId8CM05Fd6JsWJ86hHCqMsioZzjGNqxCPGUU6dOVdJynINnRm9jxozRcGs6ZDHg4eiD/jn3MrLlBV+ea0Nqn6ivXRW7KDUaBxxEk8BTNFfdwOUXNkFWMfkKSoVcGBFFkEsQBnjGM/g5aPUCI5w/f17l0g4SE1LwAqx2Qh9GIBSHyoUwQ4YMUa+Eh6tZs6Z6v4yMDB0PxOvRo4d6QWRB3KZNm0rnzp2zPQybFEhBfQMk5aIO/Tdo0EDbQwI8JURBL5CgTZs2Urp0aS3n3rVrVx0PbZFLffqlzOu5ICZzZGzcmYsBolKfskjwpeUxhz9Gff155lMgpgQ8Vvp4kfPjorqyLv8RUFRGoOe8Q1coUAYrFGA8VigrnZUI0VAYhvPmYn5A7oQXwbgov3nz5rk8H7K5QkFfVapUyS7D+HgVAx4L7+cFYRLjcwd8UWAebBrol3FACM6btm3bpnNDLuD+9OlTfaZPFlzoWCEGO2HIhSw2E17i5gU/dULhfwn/nwMlkqijPBSB92J1k0yjdAxtCXo0gFwWjljhhB+/wIBe4+IpkAcoY0x5kZJygPcCEIKdp80Pjwy5Zs2aJXv27NE5khLQB0AuYw0nH29n5IKcsUK+IRcg7BCiUBrbb5JgjgBQJNt7kt9wyo4Eb32MF7pTiwbIMtIwRvM4oYDMlAPq046wxs5sypQp6oEtmWYDwwaB4w/qeRePV44XzMHeQ7RYIV+Ri1VtW308BJ8ryJl4b3lMtGD12xYfT8jZVDiD+QFyIDhABiEylGC8Z2HYe4yP96N/7oT+SZMmyYwZMzR8AsszaWuk4x07TvN8BupwVod89JGamqqyfwWrw91PfZCvyIWySNjts40lwiSkvP87sLwJYBB2TRAMr8BvvABnXORB9BUJkJ4zOQuV7GIxNDKQhUxyJrwQpMCI7ErJ9fDAfBvlPb8hKRsLQL+0RT6eGz3wjo0MRDX53NkgsEGhHDkcafghiyX7tCMkm8xIyFfkAoSPZs2aZSsMhbNjYkX7XXFe4PV69eqlcgGHr3wd4NgD4xGS5s+fr4eevyIXRmdnxwk3z5xJLV++XA9n+TS1ZcsWmTdvnty9e1fHyrc9dpPUhYizZ8/W/gj3HHLyzuSyAPCMHKbamR9HFAsWLJCNGzfK0aNH9a80nG3ZThOvxXh+BeraaT1gQTB/jmgiIS7JxSS9lxeQiWMBts4oBa/F9ttbj2fK7G6w31YGkEeOw2k5XgxACk7hV69erZ7MPAptwsnwApKOHTtWyYBsDA0xOWPi1J6dKcCY48ePV6IgB/l4DE7oFy1aJMuWLZM7d+5oP3jqvn37qkeEMBMnTtSjAspI2En4V65cqWOmP+Tx+WfChAk5kn4be+i4+c1miaMeykk1OPPivCwSEv8KIPicJ/6VnvMThR+kFE6Qf9YLuP87/w740pxx/1fIKlhKslInBpSPMXMbCA9B+EDxFStW1Imb20YRkABjcOc7GqEFpRhIzEmECS0YhtBAe5TGe2Ty2YV2EACZ/MYgGNCIhKfg9Jv3EBhPgwwMiiFogxf19k07vCi7PwyLLIBc8ivCN/nhqFGjdGzU5yIEEeZNFnNDPp6KuvzvinqUQ0z6ZU7mTXlGX2x6evbsKQMGDFACesGnKxYl80cnJpOL9nzd4JiHkMhv+uHcLy/4+nCdtPpt8Mk/6pYoIJf+kSySVjaQXUa3w/qRXE0yOx4NTCD8h2uGjFFs6EYALzAG5aZwb7m1DW3Pb8sjIrXjbqSwOty5vGW8R3Y4mBzvHZgck2swuVYf5FUXeMfJM5d3nDx721h97iCcTk2e1aOctCEvxCW5HOIDcZlzOcQHHLkcYgZHLoeYwVfO5eDwd+A8l0PM4MjlEDM4cjnEDI5cDjGDI5dDzODI5RAjiPwX5pKPqyfex6oAAAAASUVORK5CYII=;" vertex="1" parent="1">
          <mxGeometry x="161" y="157.83" width="50.38" height="14.35" as="geometry" />
        </mxCell>
        <mxCell id="Aq7TOSpX-jK6ljKEVWup-5" value="" style="shape=image;verticalLabelPosition=bottom;labelBackgroundColor=default;verticalAlign=top;aspect=fixed;imageAspect=0;image=https://static.vecteezy.com/system/resources/previews/021/496/368/original/ios-icon-logo-software-phone-apple-symbol-with-name-black-design-mobile-illustration-free-vector.jpg;clipPath=inset(25.41% 11% 25.41% 11%);" vertex="1" parent="1">
          <mxGeometry x="161" y="204.04000000000002" width="42.75" height="21.92" as="geometry" />
        </mxCell>
        <mxCell id="Aq7TOSpX-jK6ljKEVWup-6" value="" style="shape=image;verticalLabelPosition=bottom;labelBackgroundColor=default;verticalAlign=top;aspect=fixed;imageAspect=0;image=data:image/png,iVBORw0KGgoAAAANSUhEUgAAAJAAAAAeCAYAAADD/JcQAAAAAXNSR0IArs4c6QAAAARnQU1BAACxjwv8YQUAAAAJcEhZcwAADsMAAA7DAcdvqGQAAA3DSURBVHhe7ZsJdFTVGcf/M1kmAULMAgHBhCWALNIKyG5BgnhOTxFaDYIiKNR9bVFLi6gVxV0WaymiiEFkFRQSFk3CvmOALBCSAAESsm+TzGQmM5P0++7cx7xJJnsO6CG/Ofe87y7vvpe8/3z3ft9LNFUEWmmliWjlsZVWmkSrgFppFo1ewhYvXiotOy+//KK0bhzqe9JoNHjppRdk7dfLr/H32CRYQA1l69ZtVd26hzoVvV4ve28cixYtuXY/U6c9IluvD2lp56XVOBYtdtwz3/9vlUYtYRER30rLQcTqmm3XG/Y6N4K/PBCO8ffeh7v/MBYZGRmy9eaiwQIiT4MTv/wiaw4iIlZL6+Zi06bvcfLkKWFnZGRiydLPhH0jyCy9iphLe3ChOB1V9GkuuYY8HMo4gsslV2CrsslW1zRYQOvWrZcWMCX8QQQEBAg7NzcP586dE/bNxPDhw6RlZ9jQodK6vtgqbVi47zMs3L8c/4lbhazSHNnTNHIMuViVsBFvH/gcnxxagXxjoexxTYMFFLF6jbRIQA+FIzz8AVkDVn/r6LsR0FIsretH165dsXTJItw/8U946835ePBBx+/jesLLd8LlC0jNz8Te9BPYcG4rrJVW2ds42NskFaQiKjUWKbkZuFqYj0pbpex1TYMEdPZsMjIzM4Xt7e2NwYMGCS+ksGbNWmndXEwk8SwhEc2cOUO2XH+0Gi3eGT8HhdYK2MwW7M44jlO5SbK3cWSV5WBl/HpklxWhqrIKE/tNQEBbf9nrmgYJaMPGTdICxo8PE8fu3bvTt7CLsJnY2N3Sahjp6emiNIUjR47CYDDKWuPIyspCYmISCgtrd81lZWVITm7ZZbk591wfd/e6C6MCBiLLYsTlwkxEXYxFkalYeCKT1QyjpRyFtBRlllzFpaLL4lhoLIKhwggz9VtpGbTQ2ENZcUgsSCNPBIy8bQhGBw+Gp5uHvIpr3OWxTtQb5cmT7pcWEBYWhm++iRD2mjXfYdy4e4RdF08/8xyOHz9x7QH6+/tj8OBBeGfB2+jYsYNoc8XevfsQFbUdMSRU5Vz2hA3J+Zw5cxaLlyxFfHw8cnJyRRvvYdZ+5xxBcm4m7uRJ7N9/QNQDAwMxYsRwjBo5Ag89NEW0qZn28HRpAS+9+EKNfdH69Ruwj+biezcYDKKN73nu3FeF3VJo6LNi8lsYs3YWDDYLjubE06Z6Pzp5BYiNcC7ta8orTXDTasVYXvIrqXi5eSGwTSCCfboi0CcQ3yRvhLHCgrae7TD59jAE+90qr1A79XqgmJhYVFba10F+2GqRTLp/orTIA+3eg6KiIllzzYiRo7Fr109O3362f/45GqPvHuMyymNen/8GHnt8NjZS5KM+95e4OMyY+bisuWblylWY/OcHxDUU8VRnJ93T8BGjRCSliIfJz8/Htm2RmPvPeZg+faZsdcBeRSnV4fF83vbtO66Jh+F7njX7SVlrOTr7dsTjfenLrXWDjvZFJ7JP4EDmIeSb8uDp4QF/nS9u8WgPXyq3eLaHn649dG7uKKD+w9lHsTZxA9qSt2nn4YVxIcMxJmQo3Gmu+qhXQPzQFMaHjZOWnTvv/D169+ola0AkeYjauO++PyI72xEh9OjRXRQFi8VCG/OpJMJi2WLn/Q8+dNpj+fj4oE+fPuK6Xl5eoq22EJo93YJ33hVzK7BXGTjwDlmzj3mGvKJaXMHBt4kxPFbh4KFDGHvPeFmrGx7H4xV8fX1xx4ABYl6mtLSU9k4tG/bnl+Yj1K8jRgSFor9/CDro/EgQ3tBUaWG1WVFuM6HMZkSZ1UDFCCPVK2jZ0lJ/G60X/Lx8cbtvNwwO6oFbvXxQTssbR3j1UaeA+NvOHkMhrJqAGHXb2rXrpOXMc8+/iJTUVFkD9uyORkz0T6Js3brFyfXPm/e6tIBDhw9j+fIVsgbMmvUY4k/HYeeOSLqv7XSMwpgxf5C9Nfn661XSssNL1vFjh/HjD5uFzR7zyaeelr12Nm5ch717YsUYHsuRlsKlS5ewstqc1eF+HqfAS9upkyfEz8nz8vwtCS9Hydkp2HxmG07mnkLP9reivVs7sWqwUIotehRWFCPPXETeqJCO9pJvKkIBtRVX6MU4q82Gdto2CG7XCUUV5HmTtyM5J0WIry7qFJDao3Tp0gUTJtwraw7UAuJoLTGpZgRwmISgMPcfryEkJETWIL6Z/EtWOHLUsRx8+sliadmvM//1ebJmJyQkGJ9++rGTJ1PgzPCOnbtkDSLUrr5HWfa/L1BcXCJrwP59uzFk8GBZs8ORlvq6Cxa8W2vWmb9w3K8wetTIGu+4eH6+TkvAScP4zER8f/ZHJBefg5eHJzfSptlEItDT8kTCKS9ADguHSi4VtvmYayq4duQ+FpKBNtu8W+G90vnSi9iSHImzOefqTJPUKaBNmzZLy/4A1Wu+Unh5GDhwoBwFsdFVk5Z23mlZmjTJsW9S4AerLIU8ls9hkpOTxZF5eNpUaTnj7+eHKeHhsuYgNS1NWkCHDh1chtrq+VnYnNtxBXs+Jfpk+Od2RUqKw8vy8rpgwb9lzRm+Dl+vuaTmnscP5CkuGTLgQfsXjqTKKBIrMkvxkJfJEyIi71NeTF6nBAV05D6288UYsrmfxhbTeQaLQXgjLYkow3gV6xM3U2R3RV6xJrUKKD4hAQlUFDgS46jDVeHoRkGdsWZ4I6qmU6dO0nLGP8CRb+BzUlPTYDDaw95OQUF1Rnjdu3eTloNU1cNUpxvUsMdUcDWHGmX/whw9dkxazqhF261bN1Fqo77r1UdBWSEik3cJT1FZVYkKawVKTKW4cikTqcdTkJufh0ISSbG5FHqzAaUVtPcxGyl0L6djOUqprcRchmI6p9CkR15ZEa4mZiLzfJYQoMliFonFdMMVrDgeAX25Xl7ZmVoFVN2TNBReEtT7pqZSRb8UBXePurMN/G2pjtFYLi1Ap9NJyxklumwstlqys1Wq+bTaul/wurrnhsL7kuiUPTh6NU4IQ0+FvUlWRjbOrjyNvR/9hMQdCSguKyWhlMNgNlExU4jOhWw6ikLtLCa9yYiMpAzEvLcd8atOIO1IqphPX1FGm20zkmh53HIq0uVSVutPsXnzD9JqPFEUuio09U15jx494O5uFw6/rDx16rSwXcH9TaF3b0cEefFi3UnNy5cdbrz6PkmB71mhvntq6j0zF/LScSwjDiWWUphsFWLvUmIyIDXuPOIPn4JRTx5GT16nvJw8SQVMVgvMVqssNvJWVlG4zv0G8jZZefkoKSxB0tEEpJEHKzGUUruJxlTAXGlB9OW94rrVcSkgzouol56LF1LrLV995YiWOHfCL1mbA4tH/YDV2fDqxMTGSqtx9AoNlRbw+X+XSasmnMuJjo6RNRLQkEHScqZnT4eA+K8X5s9/U9ZqUlvEWh9methxGacRn3MW5VYzyqkuliTyQhYf2gD76eA7sCN8ftcRlfT9s9B+xkoek70mF363xUfe51hITGayK8ijtQn1Q/DoPvAM8BZzlFlpqaPljuc3k0h537TzTHSN0N6lgNTL15AhQ6RVN+PuGSstO01dAtVMf+Rhadl/4ZtUOSmFDz/6GAcOHJS1xqHOLnNuhvdz5fStVXPhwkWRhlCY8eh0EnZvWXOmc+fOol/h2zXf1bg3np+vo05rNIYC2qskXj0Lg80kRGAVHsUivIyuR3sEPT0AvuHdoe3qDSstqYp4eLnm91vXiq1KtNmkwDTeWlRO9EOHJ/rCa0QgTOR1zBQg8fx8vtFqQgKJNqsoW96JnRoC4mRfZGSUrHFG1fEQ60OdmW4JAU2jyGvs2DGyBrz62lzMnv0E3njjLfxr3nxMf3Qmli1bLnsbT//+/bA6wpHX4egqfMpUzHnlNbz3/gd49tnnETZ+guy1M3++cyqhOtX7H53xGP76xFNYuPB9MS/PX1sUVx+8B8kqyUZSdgp5AnrolRpR+AFbWCRuQLvbfOBFXkQZz0VDRUvjtFUauFVpxZELaMvG/fxag3c3uraeaBNMbkynFZ6LxcVj3CpJJjSAI7W03AtiboUaAtq+w7F/YdSiqA+12DhlX9e+paF8vfJLp288vzLhPx9hj3TwoD3b6yrB2VBGjx7llOdJSjpD+78t+OKLL53ySJxN3vz9xmv7strgfh7H4xX4ddCKL78S8/L8TPWcVEPgl55ZxTnINRSIB+pGItDQkcVko6BDeBkhBvlhVVAhycCNigcVd439yHV+M8b9dqEJk8RE81HFRgYLi+d357EkPD1FbBcLHElSpoaA1J6j+rJUH9WXu5bwQsyunVF45ZW/IzS0p2xxMGfO3zCgf39Zaxqc54mK3CpyPR4ezm+feVnipZSzyfzqpiHwOB7P5wUFdZStDjg/NGxY4/8AzULLVG4J7S3poXpWuUOn8YR7lRsJieRARSML2/Y2FosbdCQBndYDXjTeW6ODl1ZH53pQcYcnHT2oXxkvjuRxhMTI5vn5Ol50HnsjvalM3o2d39w/FiYkJiImOla8we/b93an91UtAf8pR1zcSbH3GTr0LvTr11f2NB2eb9++/c2+Z97ApudfwZUSiuAouuWMMXsJK2z0bNnn2L0IY499yYPQx43G8kcrImIu7HHIw9CREw/iXHGi/Wz7aPYuGnhqSVzktcR48kpB7QLRO8gRfLT+Z2orzcJlFNZKKw2lVUCtNItWAbXSDID/A6KyQ3YpyhJEAAAAAElFTkSuQmCC;" vertex="1" parent="1">
          <mxGeometry x="163.37" y="260" width="48.01" height="10" as="geometry" />
        </mxCell>
        <mxCell id="Aq7TOSpX-jK6ljKEVWup-8" value="" style="shape=image;verticalLabelPosition=bottom;labelBackgroundColor=default;verticalAlign=top;aspect=fixed;imageAspect=0;image=https://icon-library.com/images/website-icon-vector/website-icon-vector-8.jpg;" vertex="1" parent="1">
          <mxGeometry x="163.37" y="304.18" width="24.82" height="24.82" as="geometry" />
        </mxCell>
        <mxCell id="Aq7TOSpX-jK6ljKEVWup-10" value="&lt;b&gt;&lt;font style=&quot;font-size: 14px;&quot;&gt;Frontend&lt;/font&gt;&lt;/b&gt;" style="text;html=1;align=center;verticalAlign=middle;whiteSpace=wrap;rounded=0;" vertex="1" parent="1">
          <mxGeometry x="161" y="20" width="60" height="30" as="geometry" />
        </mxCell>
        <mxCell id="Aq7TOSpX-jK6ljKEVWup-12" value="&lt;b&gt;&lt;font style=&quot;font-size: 14px;&quot;&gt;Backend&lt;/font&gt;&lt;/b&gt;" style="text;html=1;align=center;verticalAlign=middle;whiteSpace=wrap;rounded=0;" vertex="1" parent="1">
          <mxGeometry x="520" y="20" width="60" height="30" as="geometry" />
        </mxCell>
      </root>
    </mxGraphModel>
  </diagram>
  <diagram id="6zGAtNs_Q0GAv7OHrAA5" name="UseCases">
    <mxGraphModel dx="1042" dy="1700" grid="1" gridSize="10" guides="1" tooltips="1" connect="1" arrows="1" fold="1" page="1" pageScale="1" pageWidth="827" pageHeight="1169" math="0" shadow="0">
      <root>
        <mxCell id="0" />
        <mxCell id="1" parent="0" />
        <mxCell id="K7BlDZ4jV3Zi1Cgt7Uq2-12" style="edgeStyle=orthogonalEdgeStyle;rounded=0;orthogonalLoop=1;jettySize=auto;html=1;entryX=0;entryY=0.5;entryDx=0;entryDy=0;" parent="1" source="K7BlDZ4jV3Zi1Cgt7Uq2-1" target="K7BlDZ4jV3Zi1Cgt7Uq2-11" edge="1">
          <mxGeometry relative="1" as="geometry" />
        </mxCell>
        <mxCell id="K7BlDZ4jV3Zi1Cgt7Uq2-13" style="edgeStyle=orthogonalEdgeStyle;rounded=0;orthogonalLoop=1;jettySize=auto;html=1;entryX=0;entryY=0.5;entryDx=0;entryDy=0;" parent="1" source="K7BlDZ4jV3Zi1Cgt7Uq2-1" target="K7BlDZ4jV3Zi1Cgt7Uq2-2" edge="1">
          <mxGeometry relative="1" as="geometry" />
        </mxCell>
        <mxCell id="K7BlDZ4jV3Zi1Cgt7Uq2-14" style="edgeStyle=orthogonalEdgeStyle;rounded=0;orthogonalLoop=1;jettySize=auto;html=1;entryX=0;entryY=0.5;entryDx=0;entryDy=0;" parent="1" source="K7BlDZ4jV3Zi1Cgt7Uq2-1" target="K7BlDZ4jV3Zi1Cgt7Uq2-3" edge="1">
          <mxGeometry relative="1" as="geometry" />
        </mxCell>
        <mxCell id="K7BlDZ4jV3Zi1Cgt7Uq2-15" style="edgeStyle=orthogonalEdgeStyle;rounded=0;orthogonalLoop=1;jettySize=auto;html=1;entryX=0;entryY=0.5;entryDx=0;entryDy=0;" parent="1" source="K7BlDZ4jV3Zi1Cgt7Uq2-1" target="K7BlDZ4jV3Zi1Cgt7Uq2-4" edge="1">
          <mxGeometry relative="1" as="geometry" />
        </mxCell>
        <mxCell id="K7BlDZ4jV3Zi1Cgt7Uq2-16" style="edgeStyle=orthogonalEdgeStyle;rounded=0;orthogonalLoop=1;jettySize=auto;html=1;entryX=0;entryY=0.5;entryDx=0;entryDy=0;" parent="1" source="K7BlDZ4jV3Zi1Cgt7Uq2-1" target="K7BlDZ4jV3Zi1Cgt7Uq2-6" edge="1">
          <mxGeometry relative="1" as="geometry" />
        </mxCell>
        <mxCell id="K7BlDZ4jV3Zi1Cgt7Uq2-21" style="edgeStyle=orthogonalEdgeStyle;rounded=0;orthogonalLoop=1;jettySize=auto;html=1;entryX=0;entryY=0.5;entryDx=0;entryDy=0;" parent="1" source="K7BlDZ4jV3Zi1Cgt7Uq2-1" target="K7BlDZ4jV3Zi1Cgt7Uq2-18" edge="1">
          <mxGeometry relative="1" as="geometry" />
        </mxCell>
        <mxCell id="HIR3f1kAV3CRjBJUwkxY-6" style="edgeStyle=orthogonalEdgeStyle;rounded=0;orthogonalLoop=1;jettySize=auto;html=1;entryX=0;entryY=0.5;entryDx=0;entryDy=0;" edge="1" parent="1" source="K7BlDZ4jV3Zi1Cgt7Uq2-1" target="HIR3f1kAV3CRjBJUwkxY-1">
          <mxGeometry relative="1" as="geometry" />
        </mxCell>
        <mxCell id="HIR3f1kAV3CRjBJUwkxY-7" style="edgeStyle=orthogonalEdgeStyle;rounded=0;orthogonalLoop=1;jettySize=auto;html=1;entryX=0;entryY=0.5;entryDx=0;entryDy=0;" edge="1" parent="1" source="K7BlDZ4jV3Zi1Cgt7Uq2-1" target="HIR3f1kAV3CRjBJUwkxY-2">
          <mxGeometry relative="1" as="geometry" />
        </mxCell>
        <mxCell id="Ju1m7VbrxiQHBNafUUm2-2" style="edgeStyle=orthogonalEdgeStyle;rounded=0;orthogonalLoop=1;jettySize=auto;html=1;entryX=0;entryY=0.5;entryDx=0;entryDy=0;" edge="1" parent="1" source="K7BlDZ4jV3Zi1Cgt7Uq2-1" target="Ju1m7VbrxiQHBNafUUm2-1">
          <mxGeometry relative="1" as="geometry" />
        </mxCell>
        <mxCell id="K7BlDZ4jV3Zi1Cgt7Uq2-1" value="Nutzer" style="shape=umlActor;verticalLabelPosition=bottom;verticalAlign=top;html=1;" parent="1" vertex="1">
          <mxGeometry x="100" y="130" width="30" height="60" as="geometry" />
        </mxCell>
        <mxCell id="K7BlDZ4jV3Zi1Cgt7Uq2-17" style="edgeStyle=orthogonalEdgeStyle;rounded=0;orthogonalLoop=1;jettySize=auto;html=1;entryX=0.5;entryY=0;entryDx=0;entryDy=0;dashed=1;exitX=1;exitY=0.5;exitDx=0;exitDy=0;" parent="1" source="K7BlDZ4jV3Zi1Cgt7Uq2-2" target="K7BlDZ4jV3Zi1Cgt7Uq2-3" edge="1">
          <mxGeometry relative="1" as="geometry" />
        </mxCell>
        <mxCell id="K7BlDZ4jV3Zi1Cgt7Uq2-2" value="Liste alle Lagerartikel" style="ellipse;whiteSpace=wrap;html=1;" parent="1" vertex="1">
          <mxGeometry x="240" y="55" width="140" height="70" as="geometry" />
        </mxCell>
        <mxCell id="K7BlDZ4jV3Zi1Cgt7Uq2-3" value="Zeige Lagerort&amp;nbsp;für Lagerartikel" style="ellipse;whiteSpace=wrap;html=1;" parent="1" vertex="1">
          <mxGeometry x="370" y="125" width="140" height="70" as="geometry" />
        </mxCell>
        <mxCell id="HIR3f1kAV3CRjBJUwkxY-5" style="edgeStyle=orthogonalEdgeStyle;rounded=0;orthogonalLoop=1;jettySize=auto;html=1;" edge="1" parent="1" source="K7BlDZ4jV3Zi1Cgt7Uq2-4" target="HIR3f1kAV3CRjBJUwkxY-4">
          <mxGeometry relative="1" as="geometry" />
        </mxCell>
        <mxCell id="K7BlDZ4jV3Zi1Cgt7Uq2-4" value="Suche nach Lagerartikel" style="ellipse;whiteSpace=wrap;html=1;" parent="1" vertex="1">
          <mxGeometry x="240" y="200" width="140" height="70" as="geometry" />
        </mxCell>
        <mxCell id="K7BlDZ4jV3Zi1Cgt7Uq2-5" value="Foto von Gegenstand machen und Lagerartikel&amp;nbsp;inklusive Lagerort&amp;nbsp;identifizieren lassen" style="ellipse;whiteSpace=wrap;html=1;dashed=1;" parent="1" vertex="1">
          <mxGeometry x="400" y="360" width="200" height="80" as="geometry" />
        </mxCell>
        <mxCell id="K7BlDZ4jV3Zi1Cgt7Uq2-6" value="Grafische Darstellung des Lagerortes" style="ellipse;whiteSpace=wrap;html=1;" parent="1" vertex="1">
          <mxGeometry x="240" y="280" width="140" height="70" as="geometry" />
        </mxCell>
        <mxCell id="K7BlDZ4jV3Zi1Cgt7Uq2-11" value="Liste alle Lagerort" style="ellipse;whiteSpace=wrap;html=1;" parent="1" vertex="1">
          <mxGeometry x="240" y="-30" width="140" height="70" as="geometry" />
        </mxCell>
        <mxCell id="K7BlDZ4jV3Zi1Cgt7Uq2-18" value="Zeige Lagerartikel für Lagerort" style="ellipse;whiteSpace=wrap;html=1;" parent="1" vertex="1">
          <mxGeometry x="240" y="-140" width="140" height="70" as="geometry" />
        </mxCell>
        <mxCell id="K7BlDZ4jV3Zi1Cgt7Uq2-19" style="edgeStyle=orthogonalEdgeStyle;rounded=0;orthogonalLoop=1;jettySize=auto;html=1;dashed=1;" parent="1" source="K7BlDZ4jV3Zi1Cgt7Uq2-11" target="K7BlDZ4jV3Zi1Cgt7Uq2-18" edge="1">
          <mxGeometry relative="1" as="geometry">
            <mxPoint x="390" y="85" as="sourcePoint" />
            <mxPoint x="470" y="120" as="targetPoint" />
          </mxGeometry>
        </mxCell>
        <mxCell id="HIR3f1kAV3CRjBJUwkxY-1" value="Lagerartikel anlegen / ändern" style="ellipse;whiteSpace=wrap;html=1;" vertex="1" parent="1">
          <mxGeometry x="240" y="380" width="140" height="70" as="geometry" />
        </mxCell>
        <mxCell id="HIR3f1kAV3CRjBJUwkxY-2" value="Anzahl Lagerartikel darstellen / ändern" style="ellipse;whiteSpace=wrap;html=1;" vertex="1" parent="1">
          <mxGeometry x="240" y="470" width="140" height="70" as="geometry" />
        </mxCell>
        <mxCell id="HIR3f1kAV3CRjBJUwkxY-3" value="Animationen von Ameise in Bewegung" style="ellipse;whiteSpace=wrap;html=1;" vertex="1" parent="1">
          <mxGeometry x="420" y="470" width="140" height="70" as="geometry" />
        </mxCell>
        <mxCell id="HIR3f1kAV3CRjBJUwkxY-4" value="Suche durch zusätzliche ähnliche Worte zulassen" style="ellipse;whiteSpace=wrap;html=1;" vertex="1" parent="1">
          <mxGeometry x="400" y="200" width="140" height="70" as="geometry" />
        </mxCell>
        <mxCell id="Ju1m7VbrxiQHBNafUUm2-1" value="Admin Modus" style="ellipse;whiteSpace=wrap;html=1;dashed=1;" vertex="1" parent="1">
          <mxGeometry x="240" y="560" width="140" height="70" as="geometry" />
        </mxCell>
      </root>
    </mxGraphModel>
  </diagram>
  <diagram id="msp1SDdlt-FVzVI9ciGp" name="wireframe">
    <mxGraphModel dx="1226" dy="625" grid="1" gridSize="10" guides="1" tooltips="1" connect="1" arrows="1" fold="1" page="1" pageScale="1" pageWidth="827" pageHeight="1169" math="0" shadow="0">
      <root>
        <mxCell id="0" />
        <mxCell id="1" parent="0" />
        <mxCell id="2N-iiYpbty00mScalhE2-52" value="" style="rounded=0;whiteSpace=wrap;html=1;" parent="1" vertex="1">
          <mxGeometry x="360" y="390" width="200" height="240" as="geometry" />
        </mxCell>
        <mxCell id="2N-iiYpbty00mScalhE2-55" value="&lt;div&gt;&lt;br&gt;&lt;/div&gt;&lt;div&gt;&lt;br&gt;&lt;/div&gt;" style="rounded=0;whiteSpace=wrap;html=1;verticalAlign=bottom;" parent="1" vertex="1">
          <mxGeometry x="360" y="420" width="200" height="210" as="geometry" />
        </mxCell>
        <mxCell id="-FNkMoNk7HiQWJX79I8y-1" value="" style="rounded=0;whiteSpace=wrap;html=1;" parent="1" vertex="1">
          <mxGeometry x="640" y="80" width="200" height="240" as="geometry" />
        </mxCell>
        <mxCell id="-FNkMoNk7HiQWJX79I8y-2" value="Android" style="text;html=1;align=center;verticalAlign=middle;whiteSpace=wrap;rounded=0;fontStyle=1;fontSize=16;" parent="1" vertex="1">
          <mxGeometry x="10" width="70" height="30" as="geometry" />
        </mxCell>
        <mxCell id="-FNkMoNk7HiQWJX79I8y-3" value="Box-View" style="text;html=1;align=center;verticalAlign=middle;whiteSpace=wrap;rounded=0;fontStyle=1" parent="1" vertex="1">
          <mxGeometry x="700" y="50" width="80" height="30" as="geometry" />
        </mxCell>
        <mxCell id="-FNkMoNk7HiQWJX79I8y-4" value="" style="rounded=0;whiteSpace=wrap;html=1;" parent="1" vertex="1">
          <mxGeometry x="920" y="390" width="200" height="240" as="geometry" />
        </mxCell>
        <mxCell id="-FNkMoNk7HiQWJX79I8y-8" value="Create Lagerartikel View" style="text;html=1;align=center;verticalAlign=middle;whiteSpace=wrap;rounded=0;fontStyle=1" parent="1" vertex="1">
          <mxGeometry x="960" y="360" width="120" height="30" as="geometry" />
        </mxCell>
        <mxCell id="-FNkMoNk7HiQWJX79I8y-9" value="TopBar" style="rounded=0;whiteSpace=wrap;html=1;" parent="1" vertex="1">
          <mxGeometry x="640" y="80" width="200" height="30" as="geometry" />
        </mxCell>
        <mxCell id="-FNkMoNk7HiQWJX79I8y-10" value="TopBar - Create" style="rounded=0;whiteSpace=wrap;html=1;" parent="1" vertex="1">
          <mxGeometry x="920" y="390" width="200" height="30" as="geometry" />
        </mxCell>
        <mxCell id="-FNkMoNk7HiQWJX79I8y-11" value="Liste&lt;div&gt;&lt;br&gt;&lt;/div&gt;&lt;div&gt;&lt;br&gt;&lt;/div&gt;" style="rounded=0;whiteSpace=wrap;html=1;verticalAlign=bottom;" parent="1" vertex="1">
          <mxGeometry x="640" y="110" width="200" height="210" as="geometry" />
        </mxCell>
        <mxCell id="-FNkMoNk7HiQWJX79I8y-15" value="" style="rounded=0;whiteSpace=wrap;html=1;" parent="1" vertex="1">
          <mxGeometry x="650" y="280" width="180" height="30" as="geometry" />
        </mxCell>
        <mxCell id="-FNkMoNk7HiQWJX79I8y-16" value="Bild" style="rounded=0;whiteSpace=wrap;html=1;" parent="1" vertex="1">
          <mxGeometry x="650" y="280" width="50" height="30" as="geometry" />
        </mxCell>
        <mxCell id="-FNkMoNk7HiQWJX79I8y-17" value="Text: Anzahl" style="rounded=0;whiteSpace=wrap;html=1;" parent="1" vertex="1">
          <mxGeometry x="700" y="280" width="130" height="30" as="geometry" />
        </mxCell>
        <mxCell id="-FNkMoNk7HiQWJX79I8y-18" value="" style="rounded=0;whiteSpace=wrap;html=1;" parent="1" vertex="1">
          <mxGeometry x="650" y="310" width="180" height="10" as="geometry" />
        </mxCell>
        <mxCell id="-FNkMoNk7HiQWJX79I8y-19" value="Bild" style="rounded=0;whiteSpace=wrap;html=1;" parent="1" vertex="1">
          <mxGeometry x="650" y="310" width="50" height="10" as="geometry" />
        </mxCell>
        <mxCell id="-FNkMoNk7HiQWJX79I8y-20" value="Text: Anzahl" style="rounded=0;whiteSpace=wrap;html=1;" parent="1" vertex="1">
          <mxGeometry x="700" y="310" width="130" height="10" as="geometry" />
        </mxCell>
        <mxCell id="-FNkMoNk7HiQWJX79I8y-21" value="TopBar - &quot;Lagerartikel&quot;" style="rounded=0;whiteSpace=wrap;html=1;" parent="1" vertex="1">
          <mxGeometry x="640" y="390" width="200" height="30" as="geometry" />
        </mxCell>
        <mxCell id="-FNkMoNk7HiQWJX79I8y-22" value="&lt;div&gt;&lt;br&gt;&lt;/div&gt;" style="rounded=0;whiteSpace=wrap;html=1;verticalAlign=bottom;" parent="1" vertex="1">
          <mxGeometry x="640" y="420" width="200" height="210" as="geometry" />
        </mxCell>
        <mxCell id="-FNkMoNk7HiQWJX79I8y-23" value="Detail-View Lagerartikel" style="text;html=1;align=center;verticalAlign=middle;whiteSpace=wrap;rounded=0;fontStyle=1" parent="1" vertex="1">
          <mxGeometry x="680" y="360" width="120" height="30" as="geometry" />
        </mxCell>
        <mxCell id="-FNkMoNk7HiQWJX79I8y-24" value="click" style="shape=flexArrow;endArrow=classic;html=1;rounded=0;dashed=1;exitX=0.231;exitY=0.667;exitDx=0;exitDy=0;exitPerimeter=0;" parent="1" source="-FNkMoNk7HiQWJX79I8y-17" target="-FNkMoNk7HiQWJX79I8y-21" edge="1">
          <mxGeometry width="50" height="50" relative="1" as="geometry">
            <mxPoint x="660.03" y="380" as="sourcePoint" />
            <mxPoint x="510" y="415" as="targetPoint" />
          </mxGeometry>
        </mxCell>
        <mxCell id="-FNkMoNk7HiQWJX79I8y-27" value="&lt;b&gt;&lt;u&gt;&lt;font style=&quot;color: light-dark(rgb(255, 0, 0), rgb(237, 237, 237)); font-size: 42px;&quot;&gt;S k i z z e&lt;/font&gt;&lt;/u&gt;&lt;/b&gt;" style="text;html=1;align=center;verticalAlign=middle;whiteSpace=wrap;rounded=0;rotation=20;" parent="1" vertex="1">
          <mxGeometry x="810" y="40" width="200" height="30" as="geometry" />
        </mxCell>
        <mxCell id="-FNkMoNk7HiQWJX79I8y-5" value="&lt;b&gt;+&lt;/b&gt;" style="ellipse;whiteSpace=wrap;html=1;aspect=fixed;" parent="1" vertex="1">
          <mxGeometry x="800" y="280" width="30" height="30" as="geometry" />
        </mxCell>
        <mxCell id="2N-iiYpbty00mScalhE2-2" value="Bild" style="rounded=0;whiteSpace=wrap;html=1;" parent="1" vertex="1">
          <mxGeometry x="660" y="150" width="40" height="30" as="geometry" />
        </mxCell>
        <mxCell id="2N-iiYpbty00mScalhE2-4" value="Bild" style="rounded=0;whiteSpace=wrap;html=1;" parent="1" vertex="1">
          <mxGeometry x="700" y="150" width="40" height="30" as="geometry" />
        </mxCell>
        <mxCell id="2N-iiYpbty00mScalhE2-5" value="Bild" style="rounded=0;whiteSpace=wrap;html=1;" parent="1" vertex="1">
          <mxGeometry x="740" y="150" width="40" height="30" as="geometry" />
        </mxCell>
        <mxCell id="2N-iiYpbty00mScalhE2-7" value="Bild" style="rounded=0;whiteSpace=wrap;html=1;" parent="1" vertex="1">
          <mxGeometry x="780" y="150" width="40" height="30" as="geometry" />
        </mxCell>
        <mxCell id="2N-iiYpbty00mScalhE2-8" value="Bild" style="rounded=0;whiteSpace=wrap;html=1;" parent="1" vertex="1">
          <mxGeometry x="660" y="180" width="40" height="30" as="geometry" />
        </mxCell>
        <mxCell id="2N-iiYpbty00mScalhE2-9" value="Bild" style="rounded=0;whiteSpace=wrap;html=1;" parent="1" vertex="1">
          <mxGeometry x="700" y="180" width="40" height="30" as="geometry" />
        </mxCell>
        <mxCell id="2N-iiYpbty00mScalhE2-10" value="Bild" style="rounded=0;whiteSpace=wrap;html=1;" parent="1" vertex="1">
          <mxGeometry x="740" y="180" width="40" height="30" as="geometry" />
        </mxCell>
        <mxCell id="2N-iiYpbty00mScalhE2-11" value="Bild" style="rounded=0;whiteSpace=wrap;html=1;" parent="1" vertex="1">
          <mxGeometry x="780" y="180" width="40" height="30" as="geometry" />
        </mxCell>
        <mxCell id="2N-iiYpbty00mScalhE2-12" value="Bild" style="rounded=0;whiteSpace=wrap;html=1;" parent="1" vertex="1">
          <mxGeometry x="660" y="210" width="40" height="30" as="geometry" />
        </mxCell>
        <mxCell id="2N-iiYpbty00mScalhE2-13" value="Bild" style="rounded=0;whiteSpace=wrap;html=1;" parent="1" vertex="1">
          <mxGeometry x="700" y="210" width="40" height="30" as="geometry" />
        </mxCell>
        <mxCell id="2N-iiYpbty00mScalhE2-14" value="Bild" style="rounded=0;whiteSpace=wrap;html=1;" parent="1" vertex="1">
          <mxGeometry x="740" y="210" width="40" height="30" as="geometry" />
        </mxCell>
        <mxCell id="2N-iiYpbty00mScalhE2-15" value="Bild" style="rounded=0;whiteSpace=wrap;html=1;" parent="1" vertex="1">
          <mxGeometry x="780" y="210" width="40" height="30" as="geometry" />
        </mxCell>
        <mxCell id="2N-iiYpbty00mScalhE2-16" value="Bild" style="rounded=0;whiteSpace=wrap;html=1;" parent="1" vertex="1">
          <mxGeometry x="660" y="240" width="40" height="30" as="geometry" />
        </mxCell>
        <mxCell id="2N-iiYpbty00mScalhE2-17" value="Bild" style="rounded=0;whiteSpace=wrap;html=1;" parent="1" vertex="1">
          <mxGeometry x="700" y="240" width="40" height="30" as="geometry" />
        </mxCell>
        <mxCell id="2N-iiYpbty00mScalhE2-18" value="Bild" style="rounded=0;whiteSpace=wrap;html=1;" parent="1" vertex="1">
          <mxGeometry x="740" y="240" width="40" height="30" as="geometry" />
        </mxCell>
        <mxCell id="2N-iiYpbty00mScalhE2-19" value="Bild" style="rounded=0;whiteSpace=wrap;html=1;" parent="1" vertex="1">
          <mxGeometry x="780" y="240" width="40" height="30" as="geometry" />
        </mxCell>
        <mxCell id="2N-iiYpbty00mScalhE2-20" value="" style="rounded=0;whiteSpace=wrap;html=1;" parent="1" vertex="1">
          <mxGeometry x="360" y="80" width="200" height="240" as="geometry" />
        </mxCell>
        <mxCell id="2N-iiYpbty00mScalhE2-21" value="Start-View" style="text;html=1;align=center;verticalAlign=middle;whiteSpace=wrap;rounded=0;fontStyle=1" parent="1" vertex="1">
          <mxGeometry x="420" y="50" width="80" height="30" as="geometry" />
        </mxCell>
        <mxCell id="2N-iiYpbty00mScalhE2-22" value="TopBar" style="rounded=0;whiteSpace=wrap;html=1;" parent="1" vertex="1">
          <mxGeometry x="360" y="80" width="200" height="30" as="geometry" />
        </mxCell>
        <mxCell id="2N-iiYpbty00mScalhE2-23" value="&lt;div&gt;&lt;br&gt;&lt;/div&gt;&lt;div&gt;&lt;br&gt;&lt;/div&gt;" style="rounded=0;whiteSpace=wrap;html=1;verticalAlign=bottom;" parent="1" vertex="1">
          <mxGeometry x="360" y="110" width="200" height="210" as="geometry" />
        </mxCell>
        <mxCell id="2N-iiYpbty00mScalhE2-34" value="Bild" style="rounded=0;whiteSpace=wrap;html=1;" parent="1" vertex="1">
          <mxGeometry x="380" y="150" width="40" height="30" as="geometry" />
        </mxCell>
        <mxCell id="2N-iiYpbty00mScalhE2-35" value="Bild" style="rounded=0;whiteSpace=wrap;html=1;" parent="1" vertex="1">
          <mxGeometry x="420" y="150" width="40" height="30" as="geometry" />
        </mxCell>
        <mxCell id="2N-iiYpbty00mScalhE2-36" value="Bild" style="rounded=0;whiteSpace=wrap;html=1;" parent="1" vertex="1">
          <mxGeometry x="460" y="150" width="40" height="30" as="geometry" />
        </mxCell>
        <mxCell id="2N-iiYpbty00mScalhE2-37" value="Bild" style="rounded=0;whiteSpace=wrap;html=1;" parent="1" vertex="1">
          <mxGeometry x="500" y="150" width="40" height="30" as="geometry" />
        </mxCell>
        <mxCell id="2N-iiYpbty00mScalhE2-38" value="Bild" style="rounded=0;whiteSpace=wrap;html=1;" parent="1" vertex="1">
          <mxGeometry x="380" y="180" width="40" height="30" as="geometry" />
        </mxCell>
        <mxCell id="2N-iiYpbty00mScalhE2-39" value="Bild" style="rounded=0;whiteSpace=wrap;html=1;" parent="1" vertex="1">
          <mxGeometry x="420" y="180" width="40" height="30" as="geometry" />
        </mxCell>
        <mxCell id="2N-iiYpbty00mScalhE2-40" value="Bild" style="rounded=0;whiteSpace=wrap;html=1;" parent="1" vertex="1">
          <mxGeometry x="460" y="180" width="40" height="30" as="geometry" />
        </mxCell>
        <mxCell id="2N-iiYpbty00mScalhE2-41" value="Bild" style="rounded=0;whiteSpace=wrap;html=1;" parent="1" vertex="1">
          <mxGeometry x="500" y="180" width="40" height="30" as="geometry" />
        </mxCell>
        <mxCell id="2N-iiYpbty00mScalhE2-42" value="Bild" style="rounded=0;whiteSpace=wrap;html=1;" parent="1" vertex="1">
          <mxGeometry x="380" y="210" width="40" height="30" as="geometry" />
        </mxCell>
        <mxCell id="2N-iiYpbty00mScalhE2-43" value="Bild" style="rounded=0;whiteSpace=wrap;html=1;" parent="1" vertex="1">
          <mxGeometry x="420" y="210" width="40" height="30" as="geometry" />
        </mxCell>
        <mxCell id="2N-iiYpbty00mScalhE2-44" value="Bild" style="rounded=0;whiteSpace=wrap;html=1;" parent="1" vertex="1">
          <mxGeometry x="460" y="210" width="40" height="30" as="geometry" />
        </mxCell>
        <mxCell id="2N-iiYpbty00mScalhE2-45" value="Bild" style="rounded=0;whiteSpace=wrap;html=1;" parent="1" vertex="1">
          <mxGeometry x="500" y="210" width="40" height="30" as="geometry" />
        </mxCell>
        <mxCell id="2N-iiYpbty00mScalhE2-46" value="Bild" style="rounded=0;whiteSpace=wrap;html=1;" parent="1" vertex="1">
          <mxGeometry x="380" y="240" width="40" height="30" as="geometry" />
        </mxCell>
        <mxCell id="2N-iiYpbty00mScalhE2-47" value="Bild" style="rounded=0;whiteSpace=wrap;html=1;" parent="1" vertex="1">
          <mxGeometry x="420" y="240" width="40" height="30" as="geometry" />
        </mxCell>
        <mxCell id="2N-iiYpbty00mScalhE2-48" value="Bild" style="rounded=0;whiteSpace=wrap;html=1;" parent="1" vertex="1">
          <mxGeometry x="460" y="240" width="40" height="30" as="geometry" />
        </mxCell>
        <mxCell id="2N-iiYpbty00mScalhE2-49" value="Bild" style="rounded=0;whiteSpace=wrap;html=1;" parent="1" vertex="1">
          <mxGeometry x="500" y="240" width="40" height="30" as="geometry" />
        </mxCell>
        <mxCell id="-FNkMoNk7HiQWJX79I8y-7" value="click" style="shape=flexArrow;endArrow=classic;html=1;rounded=0;dashed=1;" parent="1" edge="1">
          <mxGeometry width="50" height="50" relative="1" as="geometry">
            <mxPoint x="530" y="165" as="sourcePoint" />
            <mxPoint x="639" y="180" as="targetPoint" />
          </mxGeometry>
        </mxCell>
        <mxCell id="2N-iiYpbty00mScalhE2-50" value="click" style="shape=flexArrow;endArrow=classic;html=1;rounded=0;dashed=1;entryX=0.25;entryY=0;entryDx=0;entryDy=0;" parent="1" source="-FNkMoNk7HiQWJX79I8y-5" target="-FNkMoNk7HiQWJX79I8y-10" edge="1">
          <mxGeometry width="50" height="50" relative="1" as="geometry">
            <mxPoint x="535" y="310" as="sourcePoint" />
            <mxPoint x="749" y="400" as="targetPoint" />
          </mxGeometry>
        </mxCell>
        <mxCell id="2N-iiYpbty00mScalhE2-51" value="Suchfeld" style="rounded=0;whiteSpace=wrap;html=1;" parent="1" vertex="1">
          <mxGeometry x="380" y="120" width="160" height="20" as="geometry" />
        </mxCell>
        <mxCell id="2N-iiYpbty00mScalhE2-53" value="Search-View" style="text;html=1;align=center;verticalAlign=middle;whiteSpace=wrap;rounded=0;fontStyle=1" parent="1" vertex="1">
          <mxGeometry x="420" y="360" width="80" height="30" as="geometry" />
        </mxCell>
        <mxCell id="2N-iiYpbty00mScalhE2-54" value="TopBar" style="rounded=0;whiteSpace=wrap;html=1;" parent="1" vertex="1">
          <mxGeometry x="360" y="390" width="200" height="30" as="geometry" />
        </mxCell>
        <mxCell id="2N-iiYpbty00mScalhE2-57" value="Bild" style="rounded=0;whiteSpace=wrap;html=1;" parent="1" vertex="1">
          <mxGeometry x="380" y="460" width="40" height="30" as="geometry" />
        </mxCell>
        <mxCell id="2N-iiYpbty00mScalhE2-58" value="Bild" style="rounded=0;whiteSpace=wrap;html=1;" parent="1" vertex="1">
          <mxGeometry x="420" y="460" width="40" height="30" as="geometry" />
        </mxCell>
        <mxCell id="2N-iiYpbty00mScalhE2-59" value="Bild" style="rounded=0;whiteSpace=wrap;html=1;" parent="1" vertex="1">
          <mxGeometry x="460" y="460" width="40" height="30" as="geometry" />
        </mxCell>
        <mxCell id="2N-iiYpbty00mScalhE2-60" value="Bild" style="rounded=0;whiteSpace=wrap;html=1;" parent="1" vertex="1">
          <mxGeometry x="500" y="460" width="40" height="30" as="geometry" />
        </mxCell>
        <mxCell id="2N-iiYpbty00mScalhE2-61" value="Bild" style="rounded=0;whiteSpace=wrap;html=1;" parent="1" vertex="1">
          <mxGeometry x="380" y="490" width="40" height="30" as="geometry" />
        </mxCell>
        <mxCell id="2N-iiYpbty00mScalhE2-62" value="Bild" style="rounded=0;whiteSpace=wrap;html=1;" parent="1" vertex="1">
          <mxGeometry x="420" y="490" width="40" height="30" as="geometry" />
        </mxCell>
        <mxCell id="2N-iiYpbty00mScalhE2-63" value="Bild" style="rounded=0;whiteSpace=wrap;html=1;" parent="1" vertex="1">
          <mxGeometry x="460" y="490" width="40" height="30" as="geometry" />
        </mxCell>
        <mxCell id="2N-iiYpbty00mScalhE2-64" value="Bild" style="rounded=0;whiteSpace=wrap;html=1;" parent="1" vertex="1">
          <mxGeometry x="500" y="490" width="40" height="30" as="geometry" />
        </mxCell>
        <mxCell id="2N-iiYpbty00mScalhE2-65" value="Bild" style="rounded=0;whiteSpace=wrap;html=1;" parent="1" vertex="1">
          <mxGeometry x="380" y="520" width="40" height="30" as="geometry" />
        </mxCell>
        <mxCell id="2N-iiYpbty00mScalhE2-66" value="Bild" style="rounded=0;whiteSpace=wrap;html=1;" parent="1" vertex="1">
          <mxGeometry x="420" y="520" width="40" height="30" as="geometry" />
        </mxCell>
        <mxCell id="2N-iiYpbty00mScalhE2-67" value="Bild" style="rounded=0;whiteSpace=wrap;html=1;" parent="1" vertex="1">
          <mxGeometry x="460" y="520" width="40" height="30" as="geometry" />
        </mxCell>
        <mxCell id="2N-iiYpbty00mScalhE2-68" value="Bild" style="rounded=0;whiteSpace=wrap;html=1;" parent="1" vertex="1">
          <mxGeometry x="500" y="520" width="40" height="30" as="geometry" />
        </mxCell>
        <mxCell id="2N-iiYpbty00mScalhE2-69" value="Bild" style="rounded=0;whiteSpace=wrap;html=1;" parent="1" vertex="1">
          <mxGeometry x="380" y="550" width="40" height="30" as="geometry" />
        </mxCell>
        <mxCell id="2N-iiYpbty00mScalhE2-70" value="Bild" style="rounded=0;whiteSpace=wrap;html=1;" parent="1" vertex="1">
          <mxGeometry x="420" y="550" width="40" height="30" as="geometry" />
        </mxCell>
        <mxCell id="2N-iiYpbty00mScalhE2-71" value="Bild" style="rounded=0;whiteSpace=wrap;html=1;" parent="1" vertex="1">
          <mxGeometry x="460" y="550" width="40" height="30" as="geometry" />
        </mxCell>
        <mxCell id="2N-iiYpbty00mScalhE2-72" value="Bild" style="rounded=0;whiteSpace=wrap;html=1;" parent="1" vertex="1">
          <mxGeometry x="500" y="550" width="40" height="30" as="geometry" />
        </mxCell>
        <mxCell id="2N-iiYpbty00mScalhE2-73" value="Suchfeld&lt;div&gt;&lt;br&gt;&lt;/div&gt;&lt;div&gt;Auto Complete A&lt;/div&gt;&lt;div&gt;Auto Complete B&lt;/div&gt;&lt;div&gt;Auto Complete C&lt;/div&gt;&lt;div&gt;...&lt;/div&gt;" style="rounded=0;whiteSpace=wrap;html=1;verticalAlign=top;" parent="1" vertex="1">
          <mxGeometry x="380" y="430" width="160" height="100" as="geometry" />
        </mxCell>
        <mxCell id="2N-iiYpbty00mScalhE2-74" value="click" style="shape=flexArrow;endArrow=classic;html=1;rounded=0;dashed=1;entryX=0.25;entryY=0;entryDx=0;entryDy=0;exitX=0.313;exitY=0.5;exitDx=0;exitDy=0;exitPerimeter=0;" parent="1" source="2N-iiYpbty00mScalhE2-51" target="2N-iiYpbty00mScalhE2-54" edge="1">
          <mxGeometry width="50" height="50" relative="1" as="geometry">
            <mxPoint x="540" y="205" as="sourcePoint" />
            <mxPoint x="649" y="211" as="targetPoint" />
          </mxGeometry>
        </mxCell>
        <mxCell id="2N-iiYpbty00mScalhE2-75" value="click" style="shape=flexArrow;endArrow=classic;html=1;rounded=0;dashed=1;entryX=0;entryY=0.5;entryDx=0;entryDy=0;exitX=0.813;exitY=0.5;exitDx=0;exitDy=0;exitPerimeter=0;" parent="1" source="2N-iiYpbty00mScalhE2-73" target="-FNkMoNk7HiQWJX79I8y-11" edge="1">
          <mxGeometry width="50" height="50" relative="1" as="geometry">
            <mxPoint x="390" y="140" as="sourcePoint" />
            <mxPoint x="290" y="173" as="targetPoint" />
          </mxGeometry>
        </mxCell>
        <mxCell id="2N-iiYpbty00mScalhE2-77" value="Bild" style="rounded=0;whiteSpace=wrap;html=1;" parent="1" vertex="1">
          <mxGeometry x="680" y="440" width="120" height="60" as="geometry" />
        </mxCell>
        <mxCell id="2N-iiYpbty00mScalhE2-79" value="Anzahl: &quot;x&quot;" style="text;html=1;align=center;verticalAlign=middle;whiteSpace=wrap;rounded=0;" parent="1" vertex="1">
          <mxGeometry x="680" y="530" width="60" height="30" as="geometry" />
        </mxCell>
        <mxCell id="NLcCPc7a3RVmKo7lqtQU-1" value="Name: xxx" style="text;html=1;align=center;verticalAlign=middle;whiteSpace=wrap;rounded=0;" parent="1" vertex="1">
          <mxGeometry x="950" y="520" width="100" height="30" as="geometry" />
        </mxCell>
        <mxCell id="NLcCPc7a3RVmKo7lqtQU-2" value="Anzahl: xxx" style="text;html=1;align=center;verticalAlign=middle;whiteSpace=wrap;rounded=0;" parent="1" vertex="1">
          <mxGeometry x="950" y="550" width="100" height="30" as="geometry" />
        </mxCell>
        <mxCell id="SoJU5fkKKAWOeQxWUA2g-1" value="click" style="shape=flexArrow;endArrow=classic;html=1;rounded=0;dashed=1;entryX=0.5;entryY=1;entryDx=0;entryDy=0;" edge="1" parent="1" source="SoJU5fkKKAWOeQxWUA2g-2" target="-FNkMoNk7HiQWJX79I8y-19">
          <mxGeometry width="50" height="50" relative="1" as="geometry">
            <mxPoint x="660" y="380" as="sourcePoint" />
            <mxPoint x="749" y="400" as="targetPoint" />
          </mxGeometry>
        </mxCell>
        <mxCell id="SoJU5fkKKAWOeQxWUA2g-2" value="&lt;b&gt;&amp;lt;&amp;lt;&lt;/b&gt;" style="rounded=0;whiteSpace=wrap;html=1;" vertex="1" parent="1">
          <mxGeometry x="640" y="390" width="30" height="30" as="geometry" />
        </mxCell>
        <mxCell id="SoJU5fkKKAWOeQxWUA2g-3" value="Suchfeld" style="rounded=0;whiteSpace=wrap;html=1;" vertex="1" parent="1">
          <mxGeometry x="660" y="120" width="160" height="20" as="geometry" />
        </mxCell>
        <mxCell id="SoJU5fkKKAWOeQxWUA2g-4" value="" style="rounded=0;whiteSpace=wrap;html=1;" vertex="1" parent="1">
          <mxGeometry x="920" y="390" width="30" height="30" as="geometry" />
        </mxCell>
        <mxCell id="SoJU5fkKKAWOeQxWUA2g-5" value="" style="shape=image;html=1;verticalAlign=top;verticalLabelPosition=bottom;labelBackgroundColor=#ffffff;imageAspect=0;aspect=fixed;image=https://cdn0.iconfinder.com/data/icons/blueberry/32/save_diskette_floppy_disk.png" vertex="1" parent="1">
          <mxGeometry x="924" y="394" width="22" height="22" as="geometry" />
        </mxCell>
        <mxCell id="SoJU5fkKKAWOeQxWUA2g-6" value="click" style="shape=flexArrow;endArrow=classic;html=1;rounded=0;dashed=1;entryX=0.985;entryY=0.094;entryDx=0;entryDy=0;exitX=0;exitY=0.5;exitDx=0;exitDy=0;entryPerimeter=0;" edge="1" parent="1" source="SoJU5fkKKAWOeQxWUA2g-5" target="-FNkMoNk7HiQWJX79I8y-22">
          <mxGeometry width="50" height="50" relative="1" as="geometry">
            <mxPoint x="880" y="490" as="sourcePoint" />
            <mxPoint x="896" y="420" as="targetPoint" />
          </mxGeometry>
        </mxCell>
        <mxCell id="SoJU5fkKKAWOeQxWUA2g-7" value="Bild hinzufügen" style="rounded=0;whiteSpace=wrap;html=1;" vertex="1" parent="1">
          <mxGeometry x="960" y="445" width="120" height="60" as="geometry" />
        </mxCell>
      </root>
    </mxGraphModel>
  </diagram>
  <diagram id="QkFoSpLxTsqibcmi2WRv" name="Datenbank">
    <mxGraphModel dx="1042" dy="531" grid="1" gridSize="10" guides="1" tooltips="1" connect="1" arrows="1" fold="1" page="1" pageScale="1" pageWidth="827" pageHeight="1169" math="0" shadow="0">
      <root>
        <mxCell id="0" />
        <mxCell id="1" parent="0" />
        <mxCell id="zNUzwV-fNW38P4JZOLFs-28" value="Lager" style="rounded=1;whiteSpace=wrap;html=1;fontStyle=1;verticalAlign=top;fillColor=none;dashed=1;" vertex="1" parent="1">
          <mxGeometry x="340" y="10" width="540" height="350" as="geometry" />
        </mxCell>
        <mxCell id="zNUzwV-fNW38P4JZOLFs-27" value="User" style="rounded=1;whiteSpace=wrap;html=1;fontStyle=1;verticalAlign=top;fillColor=none;dashed=1;" vertex="1" parent="1">
          <mxGeometry x="40" y="10" width="260" height="350" as="geometry" />
        </mxCell>
        <mxCell id="zNUzwV-fNW38P4JZOLFs-1" value="user" style="shape=table;startSize=30;container=1;collapsible=1;childLayout=tableLayout;fixedRows=1;rowLines=0;fontStyle=1;align=center;resizeLast=1;html=1;" vertex="1" parent="1">
          <mxGeometry x="60" y="40" width="220" height="150" as="geometry" />
        </mxCell>
        <mxCell id="zNUzwV-fNW38P4JZOLFs-2" value="" style="shape=tableRow;horizontal=0;startSize=0;swimlaneHead=0;swimlaneBody=0;fillColor=none;collapsible=0;dropTarget=0;points=[[0,0.5],[1,0.5]];portConstraint=eastwest;top=0;left=0;right=0;bottom=1;" vertex="1" parent="zNUzwV-fNW38P4JZOLFs-1">
          <mxGeometry y="30" width="220" height="30" as="geometry" />
        </mxCell>
        <mxCell id="1XseisLC_BzamrwfgFLk-1" value="PK" style="shape=partialRectangle;connectable=0;fillColor=none;top=0;left=0;bottom=0;right=0;align=left;spacingLeft=6;fontStyle=5;overflow=hidden;whiteSpace=wrap;html=1;" vertex="1" parent="zNUzwV-fNW38P4JZOLFs-2">
          <mxGeometry width="30" height="30" as="geometry">
            <mxRectangle width="30" height="30" as="alternateBounds" />
          </mxGeometry>
        </mxCell>
        <mxCell id="zNUzwV-fNW38P4JZOLFs-4" value="user_id INT" style="shape=partialRectangle;connectable=0;fillColor=none;top=0;left=0;bottom=0;right=0;align=left;spacingLeft=6;fontStyle=5;overflow=hidden;whiteSpace=wrap;html=1;" vertex="1" parent="zNUzwV-fNW38P4JZOLFs-2">
          <mxGeometry x="30" width="190" height="30" as="geometry">
            <mxRectangle width="190" height="30" as="alternateBounds" />
          </mxGeometry>
        </mxCell>
        <mxCell id="zNUzwV-fNW38P4JZOLFs-5" value="" style="shape=tableRow;horizontal=0;startSize=0;swimlaneHead=0;swimlaneBody=0;fillColor=none;collapsible=0;dropTarget=0;points=[[0,0.5],[1,0.5]];portConstraint=eastwest;top=0;left=0;right=0;bottom=0;" vertex="1" parent="zNUzwV-fNW38P4JZOLFs-1">
          <mxGeometry y="60" width="220" height="30" as="geometry" />
        </mxCell>
        <mxCell id="1XseisLC_BzamrwfgFLk-2" style="shape=partialRectangle;connectable=0;fillColor=none;top=0;left=0;bottom=0;right=0;align=left;spacingLeft=6;overflow=hidden;whiteSpace=wrap;html=1;" vertex="1" parent="zNUzwV-fNW38P4JZOLFs-5">
          <mxGeometry width="30" height="30" as="geometry">
            <mxRectangle width="30" height="30" as="alternateBounds" />
          </mxGeometry>
        </mxCell>
        <mxCell id="zNUzwV-fNW38P4JZOLFs-7" value="user_name VARCHAR(255)" style="shape=partialRectangle;connectable=0;fillColor=none;top=0;left=0;bottom=0;right=0;align=left;spacingLeft=6;overflow=hidden;whiteSpace=wrap;html=1;" vertex="1" parent="zNUzwV-fNW38P4JZOLFs-5">
          <mxGeometry x="30" width="190" height="30" as="geometry">
            <mxRectangle width="190" height="30" as="alternateBounds" />
          </mxGeometry>
        </mxCell>
        <mxCell id="zNUzwV-fNW38P4JZOLFs-8" value="" style="shape=tableRow;horizontal=0;startSize=0;swimlaneHead=0;swimlaneBody=0;fillColor=none;collapsible=0;dropTarget=0;points=[[0,0.5],[1,0.5]];portConstraint=eastwest;top=0;left=0;right=0;bottom=0;" vertex="1" parent="zNUzwV-fNW38P4JZOLFs-1">
          <mxGeometry y="90" width="220" height="30" as="geometry" />
        </mxCell>
        <mxCell id="1XseisLC_BzamrwfgFLk-3" value="" style="shape=partialRectangle;connectable=0;fillColor=none;top=0;left=0;bottom=0;right=0;align=left;spacingLeft=6;overflow=hidden;whiteSpace=wrap;html=1;" vertex="1" parent="zNUzwV-fNW38P4JZOLFs-8">
          <mxGeometry width="30" height="30" as="geometry">
            <mxRectangle width="30" height="30" as="alternateBounds" />
          </mxGeometry>
        </mxCell>
        <mxCell id="zNUzwV-fNW38P4JZOLFs-10" value="Col 2" style="shape=partialRectangle;connectable=0;fillColor=none;top=0;left=0;bottom=0;right=0;align=left;spacingLeft=6;overflow=hidden;whiteSpace=wrap;html=1;" vertex="1" parent="zNUzwV-fNW38P4JZOLFs-8">
          <mxGeometry x="30" width="190" height="30" as="geometry">
            <mxRectangle width="190" height="30" as="alternateBounds" />
          </mxGeometry>
        </mxCell>
        <mxCell id="zNUzwV-fNW38P4JZOLFs-11" value="" style="shape=tableRow;horizontal=0;startSize=0;swimlaneHead=0;swimlaneBody=0;fillColor=none;collapsible=0;dropTarget=0;points=[[0,0.5],[1,0.5]];portConstraint=eastwest;top=0;left=0;right=0;bottom=0;" vertex="1" parent="zNUzwV-fNW38P4JZOLFs-1">
          <mxGeometry y="120" width="220" height="30" as="geometry" />
        </mxCell>
        <mxCell id="1XseisLC_BzamrwfgFLk-4" style="shape=partialRectangle;connectable=0;fillColor=none;top=0;left=0;bottom=0;right=0;align=left;spacingLeft=6;overflow=hidden;whiteSpace=wrap;html=1;" vertex="1" parent="zNUzwV-fNW38P4JZOLFs-11">
          <mxGeometry width="30" height="30" as="geometry">
            <mxRectangle width="30" height="30" as="alternateBounds" />
          </mxGeometry>
        </mxCell>
        <mxCell id="zNUzwV-fNW38P4JZOLFs-13" value="Col 3" style="shape=partialRectangle;connectable=0;fillColor=none;top=0;left=0;bottom=0;right=0;align=left;spacingLeft=6;overflow=hidden;whiteSpace=wrap;html=1;" vertex="1" parent="zNUzwV-fNW38P4JZOLFs-11">
          <mxGeometry x="30" width="190" height="30" as="geometry">
            <mxRectangle width="190" height="30" as="alternateBounds" />
          </mxGeometry>
        </mxCell>
        <mxCell id="zNUzwV-fNW38P4JZOLFs-18" value="lagerartikel" style="shape=table;startSize=30;container=1;collapsible=1;childLayout=tableLayout;fixedRows=1;rowLines=0;fontStyle=1;align=center;resizeLast=1;html=1;" vertex="1" parent="1">
          <mxGeometry x="360" y="40" width="240" height="150" as="geometry" />
        </mxCell>
        <mxCell id="zNUzwV-fNW38P4JZOLFs-19" value="" style="shape=tableRow;horizontal=0;startSize=0;swimlaneHead=0;swimlaneBody=0;fillColor=none;collapsible=0;dropTarget=0;points=[[0,0.5],[1,0.5]];portConstraint=eastwest;top=0;left=0;right=0;bottom=1;" vertex="1" parent="zNUzwV-fNW38P4JZOLFs-18">
          <mxGeometry y="30" width="240" height="30" as="geometry" />
        </mxCell>
        <mxCell id="1XseisLC_BzamrwfgFLk-9" value="PK" style="shape=partialRectangle;connectable=0;fillColor=none;top=0;left=0;bottom=0;right=0;align=left;spacingLeft=6;fontStyle=5;overflow=hidden;whiteSpace=wrap;html=1;" vertex="1" parent="zNUzwV-fNW38P4JZOLFs-19">
          <mxGeometry width="30" height="30" as="geometry">
            <mxRectangle width="30" height="30" as="alternateBounds" />
          </mxGeometry>
        </mxCell>
        <mxCell id="zNUzwV-fNW38P4JZOLFs-20" value="lagerartikel_id INT" style="shape=partialRectangle;connectable=0;fillColor=none;top=0;left=0;bottom=0;right=0;align=left;spacingLeft=6;fontStyle=5;overflow=hidden;whiteSpace=wrap;html=1;" vertex="1" parent="zNUzwV-fNW38P4JZOLFs-19">
          <mxGeometry x="30" width="210" height="30" as="geometry">
            <mxRectangle width="210" height="30" as="alternateBounds" />
          </mxGeometry>
        </mxCell>
        <mxCell id="zNUzwV-fNW38P4JZOLFs-21" value="" style="shape=tableRow;horizontal=0;startSize=0;swimlaneHead=0;swimlaneBody=0;fillColor=none;collapsible=0;dropTarget=0;points=[[0,0.5],[1,0.5]];portConstraint=eastwest;top=0;left=0;right=0;bottom=0;" vertex="1" parent="zNUzwV-fNW38P4JZOLFs-18">
          <mxGeometry y="60" width="240" height="30" as="geometry" />
        </mxCell>
        <mxCell id="1XseisLC_BzamrwfgFLk-10" style="shape=partialRectangle;connectable=0;fillColor=none;top=0;left=0;bottom=0;right=0;align=left;spacingLeft=6;overflow=hidden;whiteSpace=wrap;html=1;" vertex="1" parent="zNUzwV-fNW38P4JZOLFs-21">
          <mxGeometry width="30" height="30" as="geometry">
            <mxRectangle width="30" height="30" as="alternateBounds" />
          </mxGeometry>
        </mxCell>
        <mxCell id="zNUzwV-fNW38P4JZOLFs-22" value="lagerartikel_name VARCHAR(255)" style="shape=partialRectangle;connectable=0;fillColor=none;top=0;left=0;bottom=0;right=0;align=left;spacingLeft=6;overflow=hidden;whiteSpace=wrap;html=1;" vertex="1" parent="zNUzwV-fNW38P4JZOLFs-21">
          <mxGeometry x="30" width="210" height="30" as="geometry">
            <mxRectangle width="210" height="30" as="alternateBounds" />
          </mxGeometry>
        </mxCell>
        <mxCell id="zNUzwV-fNW38P4JZOLFs-23" value="" style="shape=tableRow;horizontal=0;startSize=0;swimlaneHead=0;swimlaneBody=0;fillColor=none;collapsible=0;dropTarget=0;points=[[0,0.5],[1,0.5]];portConstraint=eastwest;top=0;left=0;right=0;bottom=0;" vertex="1" parent="zNUzwV-fNW38P4JZOLFs-18">
          <mxGeometry y="90" width="240" height="30" as="geometry" />
        </mxCell>
        <mxCell id="1XseisLC_BzamrwfgFLk-11" style="shape=partialRectangle;connectable=0;fillColor=none;top=0;left=0;bottom=0;right=0;align=left;spacingLeft=6;overflow=hidden;whiteSpace=wrap;html=1;" vertex="1" parent="zNUzwV-fNW38P4JZOLFs-23">
          <mxGeometry width="30" height="30" as="geometry">
            <mxRectangle width="30" height="30" as="alternateBounds" />
          </mxGeometry>
        </mxCell>
        <mxCell id="zNUzwV-fNW38P4JZOLFs-24" value="Col 2" style="shape=partialRectangle;connectable=0;fillColor=none;top=0;left=0;bottom=0;right=0;align=left;spacingLeft=6;overflow=hidden;whiteSpace=wrap;html=1;" vertex="1" parent="zNUzwV-fNW38P4JZOLFs-23">
          <mxGeometry x="30" width="210" height="30" as="geometry">
            <mxRectangle width="210" height="30" as="alternateBounds" />
          </mxGeometry>
        </mxCell>
        <mxCell id="zNUzwV-fNW38P4JZOLFs-25" value="" style="shape=tableRow;horizontal=0;startSize=0;swimlaneHead=0;swimlaneBody=0;fillColor=none;collapsible=0;dropTarget=0;points=[[0,0.5],[1,0.5]];portConstraint=eastwest;top=0;left=0;right=0;bottom=0;" vertex="1" parent="zNUzwV-fNW38P4JZOLFs-18">
          <mxGeometry y="120" width="240" height="30" as="geometry" />
        </mxCell>
        <mxCell id="1XseisLC_BzamrwfgFLk-12" style="shape=partialRectangle;connectable=0;fillColor=none;top=0;left=0;bottom=0;right=0;align=left;spacingLeft=6;overflow=hidden;whiteSpace=wrap;html=1;" vertex="1" parent="zNUzwV-fNW38P4JZOLFs-25">
          <mxGeometry width="30" height="30" as="geometry">
            <mxRectangle width="30" height="30" as="alternateBounds" />
          </mxGeometry>
        </mxCell>
        <mxCell id="zNUzwV-fNW38P4JZOLFs-26" value="Col 3" style="shape=partialRectangle;connectable=0;fillColor=none;top=0;left=0;bottom=0;right=0;align=left;spacingLeft=6;overflow=hidden;whiteSpace=wrap;html=1;" vertex="1" parent="zNUzwV-fNW38P4JZOLFs-25">
          <mxGeometry x="30" width="210" height="30" as="geometry">
            <mxRectangle width="210" height="30" as="alternateBounds" />
          </mxGeometry>
        </mxCell>
        <mxCell id="zNUzwV-fNW38P4JZOLFs-29" value="lagerort" style="shape=table;startSize=30;container=1;collapsible=1;childLayout=tableLayout;fixedRows=1;rowLines=0;fontStyle=1;align=center;resizeLast=1;html=1;" vertex="1" parent="1">
          <mxGeometry x="627" y="40" width="233" height="150" as="geometry" />
        </mxCell>
        <mxCell id="zNUzwV-fNW38P4JZOLFs-30" value="" style="shape=tableRow;horizontal=0;startSize=0;swimlaneHead=0;swimlaneBody=0;fillColor=none;collapsible=0;dropTarget=0;points=[[0,0.5],[1,0.5]];portConstraint=eastwest;top=0;left=0;right=0;bottom=1;" vertex="1" parent="zNUzwV-fNW38P4JZOLFs-29">
          <mxGeometry y="30" width="233" height="30" as="geometry" />
        </mxCell>
        <mxCell id="1XseisLC_BzamrwfgFLk-13" value="PK" style="shape=partialRectangle;connectable=0;fillColor=none;top=0;left=0;bottom=0;right=0;align=left;spacingLeft=6;fontStyle=5;overflow=hidden;whiteSpace=wrap;html=1;" vertex="1" parent="zNUzwV-fNW38P4JZOLFs-30">
          <mxGeometry width="33" height="30" as="geometry">
            <mxRectangle width="33" height="30" as="alternateBounds" />
          </mxGeometry>
        </mxCell>
        <mxCell id="zNUzwV-fNW38P4JZOLFs-31" value="lagerort_id INT" style="shape=partialRectangle;connectable=0;fillColor=none;top=0;left=0;bottom=0;right=0;align=left;spacingLeft=6;fontStyle=5;overflow=hidden;whiteSpace=wrap;html=1;" vertex="1" parent="zNUzwV-fNW38P4JZOLFs-30">
          <mxGeometry x="33" width="200" height="30" as="geometry">
            <mxRectangle width="200" height="30" as="alternateBounds" />
          </mxGeometry>
        </mxCell>
        <mxCell id="zNUzwV-fNW38P4JZOLFs-32" value="" style="shape=tableRow;horizontal=0;startSize=0;swimlaneHead=0;swimlaneBody=0;fillColor=none;collapsible=0;dropTarget=0;points=[[0,0.5],[1,0.5]];portConstraint=eastwest;top=0;left=0;right=0;bottom=0;" vertex="1" parent="zNUzwV-fNW38P4JZOLFs-29">
          <mxGeometry y="60" width="233" height="20" as="geometry" />
        </mxCell>
        <mxCell id="1XseisLC_BzamrwfgFLk-14" style="shape=partialRectangle;connectable=0;fillColor=none;top=0;left=0;bottom=0;right=0;align=left;spacingLeft=6;overflow=hidden;whiteSpace=wrap;html=1;" vertex="1" parent="zNUzwV-fNW38P4JZOLFs-32">
          <mxGeometry width="33" height="20" as="geometry">
            <mxRectangle width="33" height="20" as="alternateBounds" />
          </mxGeometry>
        </mxCell>
        <mxCell id="zNUzwV-fNW38P4JZOLFs-33" value="lagerort_name VARCHAR(255)" style="shape=partialRectangle;connectable=0;fillColor=none;top=0;left=0;bottom=0;right=0;align=left;spacingLeft=6;overflow=hidden;whiteSpace=wrap;html=1;" vertex="1" parent="zNUzwV-fNW38P4JZOLFs-32">
          <mxGeometry x="33" width="200" height="20" as="geometry">
            <mxRectangle width="200" height="20" as="alternateBounds" />
          </mxGeometry>
        </mxCell>
        <mxCell id="zNUzwV-fNW38P4JZOLFs-34" value="" style="shape=tableRow;horizontal=0;startSize=0;swimlaneHead=0;swimlaneBody=0;fillColor=none;collapsible=0;dropTarget=0;points=[[0,0.5],[1,0.5]];portConstraint=eastwest;top=0;left=0;right=0;bottom=0;" vertex="1" parent="zNUzwV-fNW38P4JZOLFs-29">
          <mxGeometry y="80" width="233" height="30" as="geometry" />
        </mxCell>
        <mxCell id="1XseisLC_BzamrwfgFLk-15" style="shape=partialRectangle;connectable=0;fillColor=none;top=0;left=0;bottom=0;right=0;align=left;spacingLeft=6;overflow=hidden;whiteSpace=wrap;html=1;" vertex="1" parent="zNUzwV-fNW38P4JZOLFs-34">
          <mxGeometry width="33" height="30" as="geometry">
            <mxRectangle width="33" height="30" as="alternateBounds" />
          </mxGeometry>
        </mxCell>
        <mxCell id="zNUzwV-fNW38P4JZOLFs-35" value="Col 2" style="shape=partialRectangle;connectable=0;fillColor=none;top=0;left=0;bottom=0;right=0;align=left;spacingLeft=6;overflow=hidden;whiteSpace=wrap;html=1;" vertex="1" parent="zNUzwV-fNW38P4JZOLFs-34">
          <mxGeometry x="33" width="200" height="30" as="geometry">
            <mxRectangle width="200" height="30" as="alternateBounds" />
          </mxGeometry>
        </mxCell>
        <mxCell id="zNUzwV-fNW38P4JZOLFs-36" value="" style="shape=tableRow;horizontal=0;startSize=0;swimlaneHead=0;swimlaneBody=0;fillColor=none;collapsible=0;dropTarget=0;points=[[0,0.5],[1,0.5]];portConstraint=eastwest;top=0;left=0;right=0;bottom=0;" vertex="1" parent="zNUzwV-fNW38P4JZOLFs-29">
          <mxGeometry y="110" width="233" height="40" as="geometry" />
        </mxCell>
        <mxCell id="1XseisLC_BzamrwfgFLk-16" style="shape=partialRectangle;connectable=0;fillColor=none;top=0;left=0;bottom=0;right=0;align=left;spacingLeft=6;overflow=hidden;whiteSpace=wrap;html=1;" vertex="1" parent="zNUzwV-fNW38P4JZOLFs-36">
          <mxGeometry width="33" height="40" as="geometry">
            <mxRectangle width="33" height="40" as="alternateBounds" />
          </mxGeometry>
        </mxCell>
        <mxCell id="zNUzwV-fNW38P4JZOLFs-37" value="Col 3" style="shape=partialRectangle;connectable=0;fillColor=none;top=0;left=0;bottom=0;right=0;align=left;spacingLeft=6;overflow=hidden;whiteSpace=wrap;html=1;" vertex="1" parent="zNUzwV-fNW38P4JZOLFs-36">
          <mxGeometry x="33" width="200" height="40" as="geometry">
            <mxRectangle width="200" height="40" as="alternateBounds" />
          </mxGeometry>
        </mxCell>
        <mxCell id="zNUzwV-fNW38P4JZOLFs-38" value="..." style="rounded=1;whiteSpace=wrap;html=1;fontStyle=1;verticalAlign=top;fillColor=none;dashed=1;" vertex="1" parent="1">
          <mxGeometry x="40" y="400" width="255" height="80" as="geometry" />
        </mxCell>
        <mxCell id="zNUzwV-fNW38P4JZOLFs-39" value="..." style="rounded=1;whiteSpace=wrap;html=1;fontStyle=1;verticalAlign=top;fillColor=none;dashed=1;" vertex="1" parent="1">
          <mxGeometry x="340" y="400" width="540" height="80" as="geometry" />
        </mxCell>
        <mxCell id="1XseisLC_BzamrwfgFLk-8" value="FK = foreign key" style="text;html=1;align=center;verticalAlign=middle;whiteSpace=wrap;rounded=0;" vertex="1" parent="1">
          <mxGeometry x="90" y="210" width="110" height="30" as="geometry" />
        </mxCell>
        <mxCell id="1XseisLC_BzamrwfgFLk-17" value="FK = foreign key" style="text;html=1;align=center;verticalAlign=middle;whiteSpace=wrap;rounded=0;" vertex="1" parent="1">
          <mxGeometry x="540" y="220" width="110" height="30" as="geometry" />
        </mxCell>
      </root>
    </mxGraphModel>
  </diagram>
  <diagram id="atj7528Ot5_aj7GmQ7_9" name="Datenobjekte">
    <mxGraphModel dx="1042" dy="531" grid="1" gridSize="10" guides="1" tooltips="1" connect="1" arrows="1" fold="1" page="1" pageScale="1" pageWidth="827" pageHeight="1169" math="0" shadow="0">
      <root>
        <mxCell id="0" />
        <mxCell id="1" parent="0" />
        <mxCell id="t5Ai9Pdr_YqxbBCpa07a-1" value="&lt;p style=&quot;margin:0px;margin-top:4px;text-align:center;text-decoration:underline;&quot;&gt;&lt;b&gt;Object:Type&lt;/b&gt;&lt;/p&gt;&lt;hr size=&quot;1&quot; style=&quot;border-style:solid;&quot;/&gt;&lt;p style=&quot;margin:0px;margin-left:8px;&quot;&gt;field1 = value1&lt;br/&gt;field2 = value2&lt;br&gt;field3 = value3&lt;/p&gt;" style="verticalAlign=top;align=left;overflow=fill;html=1;whiteSpace=wrap;" vertex="1" parent="1">
          <mxGeometry x="330" y="230" width="160" height="90" as="geometry" />
        </mxCell>
      </root>
    </mxGraphModel>
  </diagram>
</mxfile>
